<?xml version="1.0" encoding="UTF-8"?>
<svg version="1.1" xmlns="http://www.w3.org/2000/svg" width="1024" height="1024">
<path d="M0 0 C337.92 0 675.84 0 1024 0 C1024 337.92 1024 675.84 1024 1024 C686.08 1024 348.16 1024 0 1024 C0 686.08 0 348.16 0 0 Z " fill="#FEFEFE" transform="translate(0,0)"/>
<path d="M0 0 C2.27464987 -0.00346594 4.54929804 -0.00823673 6.82394278 -0.01418173 C13.01021621 -0.02659298 19.19634908 -0.02056676 25.38262272 -0.01122308 C31.38955635 -0.00509568 37.39646186 -0.01315111 43.40338988 -0.02066517 C56.43263971 -0.03638921 69.46184515 -0.03512247 82.4910991 -0.02642844 C93.89502727 -0.01885709 105.29893925 -0.0169231 116.70286942 -0.02049637 C117.84119213 -0.0208401 117.84119213 -0.0208401 119.00251126 -0.02119078 C122.08372055 -0.02212492 125.16492982 -0.02308014 128.24613909 -0.02407007 C157.10386373 -0.03323073 185.96156026 -0.02495301 214.81928057 -0.00877938 C240.40725558 0.00545272 265.99518578 0.00418408 291.5831604 -0.01016235 C320.38787193 -0.02625866 349.19255864 -0.03257797 377.99727404 -0.02332556 C381.0732216 -0.02236354 384.14916916 -0.02142501 387.22511673 -0.02049637 C387.98239148 -0.02025914 388.73966624 -0.0200219 389.51988871 -0.01977748 C400.90985591 -0.01637813 412.29980505 -0.02033146 423.68976974 -0.02793503 C436.65407261 -0.03654688 449.6183245 -0.03429632 462.58262108 -0.0180928 C469.18813831 -0.01010713 475.79358498 -0.00705328 482.39910698 -0.01704025 C488.46153346 -0.02606696 494.52378663 -0.02092474 500.58619769 -0.0051076 C502.76360911 -0.00179319 504.94103558 -0.00337711 507.1184371 -0.01073496 C526.0473831 -0.06972538 545.61291576 0.72482971 563.78530884 6.50595093 C564.76249878 6.80525513 565.73968872 7.10455933 566.74649048 7.41293335 C594.55768695 16.21019222 617.57707707 30.3626529 638.59780884 50.38095093 C639.65741821 51.36128296 639.65741821 51.36128296 640.73843384 52.36141968 C667.55978865 77.92893067 687.93915898 119.32638628 689.70396423 156.6244812 C689.76224907 159.19865525 689.78874827 161.7709872 689.80093384 164.34579468 C689.80663391 165.29676529 689.81233398 166.2477359 689.81820679 167.2275238 C689.82762106 169.23706972 689.8341765 171.24663082 689.83804321 173.25619507 C689.84767947 176.2778856 689.87870856 179.29887477 689.91030884 182.32040405 C689.97314568 193.74095603 689.26541208 204.25673694 686.59780884 215.38095093 C686.39365356 216.28965942 686.18949829 217.19836792 685.97915649 218.13461304 C685.45467141 220.39642622 684.8865191 222.63843412 684.28530884 224.88095093 C684.07366089 225.67227417 683.86201294 226.46359741 683.64395142 227.27890015 C681.46683523 235.18747863 678.774587 242.82099961 675.59780884 250.38095093 C675.31598755 251.05303589 675.03416626 251.72512085 674.74380493 252.41757202 C667.31210639 269.80470991 657.27416509 285.38134418 644.59780884 299.38095093 C643.83855103 300.26009155 643.07929321 301.13923218 642.29702759 302.04501343 C621.56132865 325.83766266 594.17290335 341.72647115 564.28530884 351.19345093 C563.43444702 351.47140503 562.58358521 351.74935913 561.7069397 352.03573608 C544.24478544 357.3024308 526.14611031 357.82287556 508.05685425 357.76863098 C505.75490617 357.77281399 503.45296016 357.77829676 501.1510179 357.78495079 C494.88460957 357.79929732 488.61833396 357.79519471 482.3519187 357.78778398 C476.2689462 357.78351751 470.1860097 357.7933888 464.10304559 357.8026916 C450.90694251 357.82227783 437.71087888 357.82472141 424.51476473 357.8194964 C412.96360114 357.81492542 401.41245308 357.81555555 389.86128998 357.82133675 C388.30716047 357.82209364 386.75303097 357.82284962 385.19890146 357.82360469 C382.8564804 357.82474998 380.51405934 357.82589987 378.17163829 357.82706393 C356.4163767 357.83775663 334.66112025 357.84250688 312.90585709 357.83459377 C312.08713786 357.8342966 311.26841863 357.83399943 310.42488973 357.83369325 C303.77786503 357.83124473 297.1308404 357.82863293 290.48381577 357.82600911 C264.56703624 357.81591013 238.65032152 357.82426049 212.73355103 357.84750366 C183.56113611 357.8736248 154.38876019 357.88641124 125.21633315 357.87931591 C122.10075236 357.87859994 118.98517156 357.87792554 115.86959076 357.87727547 C115.10255487 357.87710566 114.33551899 357.87693585 113.54523959 357.87676089 C102.00964976 357.87446613 90.47409637 357.88239542 78.93851471 357.89556694 C65.80658848 357.9105352 52.67474715 357.9112455 39.54282263 357.89349603 C32.85208929 357.88482283 26.16153749 357.88276456 19.47080231 357.89814758 C13.32928994 357.91209224 7.18807628 357.90710702 1.04658076 357.88790835 C-1.15846989 357.88417781 -3.36354505 357.88698365 -5.56857368 357.89752 C-55.7266911 358.11988127 -99.70550434 340.18675263 -135.71469116 305.31845093 C-162.30213373 277.8278256 -181.76002523 239.67725445 -185.40219116 201.38095093 C-185.51047241 200.42833374 -185.61875366 199.47571655 -185.73031616 198.49423218 C-190.3700663 150.81469462 -178.43573695 102.86844466 -147.86459351 65.5015564 C-124.19829206 36.87757916 -93.11936891 15.78611356 -57.08969116 6.06845093 C-56.25091431 5.83803101 -55.41213745 5.60761108 -54.54794312 5.37020874 C-36.60741704 0.84059589 -18.41131525 -0.06207546 0 0 Z " fill="#006C00" transform="translate(260.4021911621094,326.6190490722656)"/>
<path d="M0 0 C2.27464987 -0.00346594 4.54929804 -0.00823673 6.82394278 -0.01418173 C13.01021621 -0.02659298 19.19634908 -0.02056676 25.38262272 -0.01122308 C31.38955635 -0.00509568 37.39646186 -0.01315111 43.40338988 -0.02066517 C56.43263971 -0.03638921 69.46184515 -0.03512247 82.4910991 -0.02642844 C93.89502727 -0.01885709 105.29893925 -0.0169231 116.70286942 -0.02049637 C117.84119213 -0.0208401 117.84119213 -0.0208401 119.00251126 -0.02119078 C122.08372055 -0.02212492 125.16492982 -0.02308014 128.24613909 -0.02407007 C157.10386373 -0.03323073 185.96156026 -0.02495301 214.81928057 -0.00877938 C240.40725558 0.00545272 265.99518578 0.00418408 291.5831604 -0.01016235 C320.38787193 -0.02625866 349.19255864 -0.03257797 377.99727404 -0.02332556 C381.0732216 -0.02236354 384.14916916 -0.02142501 387.22511673 -0.02049637 C387.98239148 -0.02025914 388.73966624 -0.0200219 389.51988871 -0.01977748 C400.90985591 -0.01637813 412.29980505 -0.02033146 423.68976974 -0.02793503 C436.65407261 -0.03654688 449.6183245 -0.03429632 462.58262108 -0.0180928 C469.18813831 -0.01010713 475.79358498 -0.00705328 482.39910698 -0.01704025 C488.46153346 -0.02606696 494.52378663 -0.02092474 500.58619769 -0.0051076 C502.76360911 -0.00179319 504.94103558 -0.00337711 507.1184371 -0.01073496 C526.0473831 -0.06972538 545.61291576 0.72482971 563.78530884 6.50595093 C564.76249878 6.80525513 565.73968872 7.10455933 566.74649048 7.41293335 C594.55768695 16.21019222 617.57707707 30.3626529 638.59780884 50.38095093 C639.65741821 51.36128296 639.65741821 51.36128296 640.73843384 52.36141968 C667.55978865 77.92893067 687.93915898 119.32638628 689.70396423 156.6244812 C689.76224907 159.19865525 689.78874827 161.7709872 689.80093384 164.34579468 C689.80663391 165.29676529 689.81233398 166.2477359 689.81820679 167.2275238 C689.82762106 169.23706972 689.8341765 171.24663082 689.83804321 173.25619507 C689.84767947 176.2778856 689.87870856 179.29887477 689.91030884 182.32040405 C689.97314568 193.74095603 689.26541208 204.25673694 686.59780884 215.38095093 C686.39365356 216.28965942 686.18949829 217.19836792 685.97915649 218.13461304 C685.45467141 220.39642622 684.8865191 222.63843412 684.28530884 224.88095093 C684.07366089 225.67227417 683.86201294 226.46359741 683.64395142 227.27890015 C681.46683523 235.18747863 678.774587 242.82099961 675.59780884 250.38095093 C675.31598755 251.05303589 675.03416626 251.72512085 674.74380493 252.41757202 C667.31210639 269.80470991 657.27416509 285.38134418 644.59780884 299.38095093 C643.83855103 300.26009155 643.07929321 301.13923218 642.29702759 302.04501343 C621.56132865 325.83766266 594.17290335 341.72647115 564.28530884 351.19345093 C563.43444702 351.47140503 562.58358521 351.74935913 561.7069397 352.03573608 C544.24478544 357.3024308 526.14611031 357.82287556 508.05685425 357.76863098 C505.75490617 357.77281399 503.45296016 357.77829676 501.1510179 357.78495079 C494.88460957 357.79929732 488.61833396 357.79519471 482.3519187 357.78778398 C476.2689462 357.78351751 470.1860097 357.7933888 464.10304559 357.8026916 C450.90694251 357.82227783 437.71087888 357.82472141 424.51476473 357.8194964 C412.96360114 357.81492542 401.41245308 357.81555555 389.86128998 357.82133675 C388.30716047 357.82209364 386.75303097 357.82284962 385.19890146 357.82360469 C382.8564804 357.82474998 380.51405934 357.82589987 378.17163829 357.82706393 C356.4163767 357.83775663 334.66112025 357.84250688 312.90585709 357.83459377 C312.08713786 357.8342966 311.26841863 357.83399943 310.42488973 357.83369325 C303.77786503 357.83124473 297.1308404 357.82863293 290.48381577 357.82600911 C264.56703624 357.81591013 238.65032152 357.82426049 212.73355103 357.84750366 C183.56113611 357.8736248 154.38876019 357.88641124 125.21633315 357.87931591 C122.10075236 357.87859994 118.98517156 357.87792554 115.86959076 357.87727547 C115.10255487 357.87710566 114.33551899 357.87693585 113.54523959 357.87676089 C102.00964976 357.87446613 90.47409637 357.88239542 78.93851471 357.89556694 C65.80658848 357.9105352 52.67474715 357.9112455 39.54282263 357.89349603 C32.85208929 357.88482283 26.16153749 357.88276456 19.47080231 357.89814758 C13.32928994 357.91209224 7.18807628 357.90710702 1.04658076 357.88790835 C-1.15846989 357.88417781 -3.36354505 357.88698365 -5.56857368 357.89752 C-55.7266911 358.11988127 -99.70550434 340.18675263 -135.71469116 305.31845093 C-162.30213373 277.8278256 -181.76002523 239.67725445 -185.40219116 201.38095093 C-185.51047241 200.42833374 -185.61875366 199.47571655 -185.73031616 198.49423218 C-190.3700663 150.81469462 -178.43573695 102.86844466 -147.86459351 65.5015564 C-124.19829206 36.87757916 -93.11936891 15.78611356 -57.08969116 6.06845093 C-56.25091431 5.83803101 -55.41213745 5.60761108 -54.54794312 5.37020874 C-36.60741704 0.84059589 -18.41131525 -0.06207546 0 0 Z M-26.73357773 25.25661945 C-27.56346368 25.33198937 -28.39334964 25.40735929 -29.24838366 25.48501314 C-58.0851087 28.45031815 -86.6919538 42.59150833 -108.40219116 61.38095093 C-109.38316772 62.22657593 -110.36414429 63.07220093 -111.37484741 63.94345093 C-139.12599261 88.3440053 -157.39361907 123.60468802 -161.40219116 160.38095093 C-161.78306067 166.3958433 -161.7916055 172.41871412 -161.77719116 178.44345093 C-161.77697968 179.26043457 -161.77676819 180.07741821 -161.77655029 180.91915894 C-161.74616321 192.68860767 -161.20301668 203.90711741 -157.98764038 215.30136108 C-157.39831117 217.39473315 -156.88283699 219.49699236 -156.37484741 221.61141968 C-150.20297318 246.0358624 -136.27348174 267.94478702 -119.40219116 286.38095093 C-118.55398804 287.31165405 -117.70578491 288.24235718 -116.83187866 289.20126343 C-89.98242967 317.33307416 -51.03312719 333.49075078 -12.3432337 334.56472647 C-6.58934704 334.6642406 -0.83587969 334.65286998 4.9186554 334.64164734 C7.13679199 334.6446734 9.35492755 334.64856515 11.57306129 334.65323991 C17.62624373 334.66347012 23.67936662 334.66135083 29.73255384 334.65705931 C35.60383355 334.65483784 41.47509731 334.66201653 47.34637241 334.66881957 C60.82608459 334.68401075 74.3057779 334.68576966 87.78549685 334.68329654 C98.19966492 334.68145947 108.61382685 334.68323215 119.02799416 334.68752098 C120.52747811 334.6881234 122.02696206 334.6887246 123.52644602 334.68932458 C125.78640317 334.6902319 128.04636032 334.69114057 130.30631746 334.69205694 C151.30209292 334.70047921 172.29786608 334.7048272 193.293643 334.70065022 C194.08414474 334.70049384 194.87464648 334.70033746 195.68910282 334.70017635 C199.69510711 334.69937064 203.70111139 334.69852487 207.70711567 334.69766305 C208.90038881 334.69740641 208.90038881 334.69740641 210.11776847 334.6971446 C211.72649173 334.69679794 213.33521499 334.69644941 214.94393826 334.69609901 C239.96716622 334.69074365 264.99035893 334.69866996 290.01358032 334.71713257 C318.16890073 334.73788208 346.3241993 334.74856963 374.47952777 334.74455708 C377.48586674 334.74416178 380.49220572 334.74380022 383.49854469 334.7434597 C384.23870584 334.74336897 384.97886699 334.74327824 385.74145726 334.74318476 C396.87963092 334.74202232 408.01778242 334.74864009 419.15595055 334.75927162 C431.83459982 334.7713617 444.51320052 334.77283897 457.19185057 334.76048145 C463.65330312 334.75461007 470.1146609 334.75344503 476.57610703 334.76548386 C482.50477855 334.77640111 488.43327685 334.77317033 494.36194048 334.75922217 C496.49303435 334.75659124 498.62414206 334.75889058 500.75522228 334.76695804 C540.10959226 334.90545633 579.32946899 325.83566509 609.59780884 299.38095093 C610.12986938 298.92043335 610.66192993 298.45991577 611.21011353 297.98544312 C641.57451331 271.51629315 662.0070939 234.05420992 666.34780884 193.75595093 C668.91640643 148.83681743 657.43369487 108.69220466 627.78775024 74.27987671 C603.51303251 47.39085704 565.60973431 26.65680779 529.07274717 24.21199022 C522.35991399 23.94077296 515.64550964 23.98188408 508.92855835 24.00672913 C506.67258525 24.00398376 504.41661344 23.99992761 502.16064477 23.99468547 C496.00288482 23.98415935 489.84527133 23.99218815 483.68751788 24.00343597 C477.71530803 24.01140116 471.74311682 24.00519463 465.77090811 23.9994594 C452.81112512 23.98756976 439.85139099 23.99259088 426.89161073 24.00473767 C415.54741889 24.01529703 404.20324365 24.01981022 392.85904694 24.01844215 C392.10493144 24.01835812 391.35081595 24.01827409 390.57384847 24.01818752 C387.51217667 24.01783523 384.45050489 24.01745121 381.38883311 24.01702194 C352.69599893 24.01306125 324.00319406 24.02575325 295.31036826 24.0465485 C269.85750902 24.06490898 244.40467789 24.07073216 218.95181274 24.0652771 C217.31792707 24.06493066 215.6840414 24.06458457 214.05015573 24.06423881 C213.24236776 24.06406781 212.43457979 24.06389682 211.60231339 24.06372064 C207.53540635 24.062867 203.46849931 24.06204323 199.40159225 24.06125164 C198.59913098 24.06109456 197.79666971 24.06093748 196.96989143 24.06077564 C175.66102552 24.05677857 154.35216229 24.06227078 133.04329801 24.07076293 C130.74818472 24.07166991 128.45307144 24.07257556 126.15795815 24.07347816 C124.63563698 24.07407928 123.11331581 24.07468789 121.59099464 24.07530407 C111.00972132 24.07951341 100.42845332 24.08010872 89.84717943 24.07819858 C76.2030201 24.07574759 62.55888921 24.07989115 48.91473761 24.09540858 C42.34204417 24.10271289 35.76938149 24.10675463 29.19668388 24.10216522 C23.16755459 24.09805797 17.13850567 24.10334102 11.1093885 24.1157913 C8.94062942 24.11869427 6.77186264 24.11832336 4.60310563 24.11414822 C-5.88577027 24.09580577 -16.28352855 24.29484129 -26.73357773 25.25661945 Z " fill="#009C08" transform="translate(260.4021911621094,326.6190490722656)"/>
<path d="M0 0 C5.47898961 0.17528243 9.75000316 3.41012942 14.265625 6.234375 C15.24015625 6.82710205 16.2146875 7.4198291 17.21875 8.03051758 C23.94805325 12.14159176 30.61181135 16.3595528 37.2578125 20.60375977 C48.46052872 27.72908474 59.90583939 34.46410538 71.30541992 41.26782227 C75.80981156 43.95722027 80.30802552 46.65689794 84.8049469 49.35876465 C88.14323973 51.36392612 91.48814157 53.35720409 94.83984375 55.33984375 C96.12810936 56.11634997 97.41589938 56.89364598 98.703125 57.671875 C99.36505859 58.05794922 100.02699219 58.44402344 100.70898438 58.84179688 C104.99946361 61.45920481 107.55407212 63.96748609 110.015625 68.484375 C110.72929786 71.98785996 110.71206714 74.14999186 109.0390625 77.35546875 C104.44825633 83.45608551 97.82251704 86.80748683 91.3046875 90.4765625 C85.62080379 93.67717475 80.05235097 97.06240717 74.48486328 100.45980835 C72.68617423 101.55721693 70.88624929 102.6525703 69.0859375 103.74731445 C66.62558954 105.24350581 64.16561607 106.74030891 61.70605469 108.23779297 C58.09377783 110.4369894 54.48074433 112.63493866 50.8671875 114.83203125 C50.28326233 115.18711258 49.69933716 115.54219391 49.09771729 115.90803528 C46.18454014 117.67898225 43.27016934 119.4479187 40.35351562 121.21313477 C39.20180887 121.91029581 38.05011612 122.60747998 36.8984375 123.3046875 C36.33195496 123.64755295 35.76547241 123.9904184 35.18182373 124.34367371 C31.67783391 126.46753522 28.18596924 128.60999602 24.70179749 130.76620483 C22.97316501 131.83435203 21.24147592 132.89733938 19.50854492 133.95849609 C17.3648932 135.27233183 15.22665691 136.59506064 13.0949707 137.92822266 C3.95562627 143.49996555 3.95562627 143.49996555 -1.984375 143.484375 C-6.06963874 141.1240004 -7.54301061 138.88315423 -8.984375 134.484375 C-9.24164391 131.91810703 -9.24164391 131.91810703 -9.25180054 129.14002991 C-9.26033051 128.08164413 -9.26886047 127.02325836 -9.27764893 125.93280029 C-9.27674255 124.78200989 -9.27583618 123.63121948 -9.27490234 122.44555664 C-9.28161957 121.22551437 -9.28833679 120.00547211 -9.29525757 118.74845886 C-9.31098481 115.40953929 -9.3176116 112.07086848 -9.31888914 108.73192906 C-9.32031275 106.64417094 -9.32458625 104.55643873 -9.32988358 102.46868706 C-9.34837238 95.18036117 -9.35655544 87.89210833 -9.35498047 80.60375977 C-9.35377865 73.81730126 -9.37489151 67.03116058 -9.4064678 60.24478251 C-9.43264112 54.41107538 -9.44334736 48.57747202 -9.44206965 42.74370664 C-9.44156042 39.26256241 -9.44722202 35.78170089 -9.46842575 32.30061531 C-9.49143225 28.4178137 -9.48228072 24.53544653 -9.47021484 20.65258789 C-9.48145386 19.50382172 -9.49269287 18.35505554 -9.50427246 17.17147827 C-9.44816594 10.07400301 -8.50588486 1.38053629 0 0 Z " fill="#71F38C" transform="translate(216.984375,432.515625)"/>
<path d="M0 0 C5.38097764 4.46227414 8.98191091 9.63417834 9.88671875 16.6328125 C10.21043264 24.46892123 8.9027537 32.16644402 3.7265625 38.30078125 C-2.91698757 44.44797413 -9.03201043 45.43205162 -17.8125 45.25 C-18.64394531 45.24097656 -19.47539062 45.23195313 -20.33203125 45.22265625 C-22.36731337 45.1992622 -24.40244564 45.16339725 -26.4375 45.125 C-26.43226318 45.96796631 -26.42702637 46.81093262 -26.42163086 47.67944336 C-26.40462174 50.79727936 -26.39206594 53.91509177 -26.38256836 57.03295898 C-26.37752943 58.38420386 -26.37069823 59.73544326 -26.36206055 61.08666992 C-26.34997581 63.02520434 -26.34480172 64.963778 -26.33984375 66.90234375 C-26.33460693 68.07015381 -26.32937012 69.23796387 -26.32397461 70.44116211 C-26.4375 73.125 -26.4375 73.125 -27.4375 74.125 C-29.60230797 74.2239294 -31.77043785 74.254711 -33.9375 74.25 C-35.1234375 74.25257813 -36.309375 74.25515625 -37.53125 74.2578125 C-40.4375 74.125 -40.4375 74.125 -41.4375 73.125 C-41.54304346 70.79325197 -41.58428558 68.49097514 -41.58276367 66.15844727 C-41.58780159 65.06577042 -41.58780159 65.06577042 -41.59294128 63.95101929 C-41.6024786 61.53113116 -41.60439578 59.11131202 -41.60546875 56.69140625 C-41.60867941 55.0161079 -41.61204333 53.34080983 -41.61555481 51.66551208 C-41.62155305 48.14899037 -41.623394 44.63249327 -41.62280273 41.1159668 C-41.62270107 36.60184896 -41.63635411 32.08788828 -41.65357494 27.57380772 C-41.6646737 24.11235321 -41.6667226 20.65093696 -41.66619301 17.18946648 C-41.66737631 15.52483516 -41.67181755 13.86020296 -41.67952538 12.19558907 C-41.6892826 9.87059536 -41.68646434 7.54594609 -41.68041992 5.22094727 C-41.68603943 4.52840347 -41.69165894 3.83585968 -41.69744873 3.12232971 C-41.66581581 -1.64668419 -41.66581581 -1.64668419 -39.4375 -3.875 C-27.40387826 -7.49902508 -10.88544525 -5.93751559 0 0 Z " fill="#75F38F" transform="translate(420.4375,426.875)"/>
<path d="M0 0 C4.25024697 3.86552634 7.66244559 8.15211878 8.1809845 14.06309509 C8.2477797 16.59115952 8.2508915 19.11175269 8.23046875 21.640625 C8.23001053 22.56341248 8.22955231 23.48619995 8.2290802 24.43695068 C8.22606711 26.38018079 8.21820911 28.32340868 8.20581055 30.26660156 C8.18747949 33.25334132 8.18530149 36.23977219 8.18554688 39.2265625 C8.18063421 41.11458603 8.17480699 43.00260746 8.16796875 44.890625 C8.16685593 45.78847717 8.1657431 46.68632935 8.16459656 47.61138916 C8.11606989 53.88393011 8.11606989 53.88393011 7 55 C3.62220021 55.42373833 0.36864866 55.51740682 -3 55 C-5.125 52.5 -5.125 52.5 -6 50 C-6.928125 50.804375 -7.85625 51.60875 -8.8125 52.4375 C-13.27724119 56.30694236 -17.550795 56.34529069 -23.2734375 56.27734375 C-27.14953489 55.88307023 -29.16140409 54.63089377 -32 52 C-36.45171532 46.22480174 -37.92561901 41.29916706 -37 34 C-35.63991465 29.47730656 -33.77892606 26.11302936 -29.6875 23.625 C-21.80809784 19.87606339 -14.59626527 19.76731914 -6 20 C-6.25554054 18.53890937 -6.53000372 17.08111904 -6.8125 15.625 C-6.96332031 14.81289063 -7.11414063 14.00078125 -7.26953125 13.1640625 C-7.87544942 10.64179359 -7.87544942 10.64179359 -11 9 C-13.52272258 8.8306705 -15.91957416 8.76663174 -18.4375 8.8125 C-20.41556641 8.82216797 -20.41556641 8.82216797 -22.43359375 8.83203125 C-25.18516918 8.96162352 -27.40189099 9.16940249 -30 10 C-31.7517543 7.44535831 -32.9171496 5.4349646 -33.5 2.375 C-33 0 -33 0 -30.875 -1.75 C-21.51469042 -5.81969982 -8.55353553 -5.89780071 0 0 Z " fill="#78F392" transform="translate(504,446)"/>
<path d="M0 0 C1.16273438 -0.04898437 2.32546875 -0.09796875 3.5234375 -0.1484375 C6.625 0.375 6.625 0.375 8.19335938 2.45288086 C9.84056674 5.81499289 10.74061815 9.01537752 11.6328125 12.65234375 C11.80376434 13.34131241 11.97471619 14.03028107 12.15084839 14.74012756 C12.50920719 16.19063185 12.8636438 17.64211021 13.21435547 19.09448242 C13.74795363 21.30402632 14.29276858 23.51055529 14.83984375 25.71679688 C16.28222855 31.57993225 17.70420035 37.40244745 18.625 43.375 C19.16764907 41.35443025 19.70901023 39.33351465 20.25 37.3125 C20.4245874 36.66361816 20.5991748 36.01473633 20.77905273 35.34619141 C21.92923974 31.05064543 23.03915587 26.74686425 24.12109375 22.43359375 C24.38003418 21.41209229 24.63897461 20.39059082 24.90576172 19.33813477 C25.42040846 17.30510335 25.92871864 15.27045567 26.43017578 13.23413086 C28.97563077 3.23704796 28.97563077 3.23704796 31.625 0.375 C34.54296875 -0.11328125 34.54296875 -0.11328125 37.8125 0.0625 C38.89917969 0.10761719 39.98585938 0.15273438 41.10546875 0.19921875 C41.93691406 0.25722656 42.76835938 0.31523437 43.625 0.375 C44.97013936 3.06527872 44.31431636 4.04634944 43.44091797 6.89379883 C43.15666962 7.83270462 42.87242126 8.77161041 42.57955933 9.7389679 C42.10318527 11.27003426 42.10318527 11.27003426 41.6171875 12.83203125 C41.29469025 13.8859758 40.97219299 14.93992035 40.6399231 16.02580261 C39.95227237 18.26722721 39.26098721 20.50753945 38.56640625 22.74682617 C37.51702927 26.13255644 36.48021682 29.52193117 35.4453125 32.91210938 C24.78433245 67.64507313 24.78433245 67.64507313 14.625 75.375 C11.86047967 76.75726016 9.5788637 76.47025387 6.5 76.4375 C5.40429688 76.42847656 4.30859375 76.41945313 3.1796875 76.41015625 C1.91511719 76.39275391 1.91511719 76.39275391 0.625 76.375 C-1.49657386 72.57629266 -1.62163053 69.73213932 -1.375 65.375 C0.53456957 63.46543043 3.90190473 63.58853551 6.49609375 63.16796875 C8.73558605 62.56069238 8.73558605 62.56069238 9.84912109 60.65307617 C10.8930448 57.58798741 10.2560341 56.16155747 9.16796875 53.1328125 C8.8011499 52.08005127 8.43433105 51.02729004 8.05639648 49.94262695 C7.64591064 48.80656006 7.2354248 47.67049316 6.8125 46.5 C5.96978676 44.08087624 5.13141112 41.66023807 4.296875 39.23828125 C4.07873642 38.6080455 3.86059784 37.97780975 3.635849 37.32847595 C1.06496925 29.84649881 -1.19073584 22.2718295 -3.4375 14.6875 C-3.63662994 14.01744934 -3.83575989 13.34739868 -4.04092407 12.65704346 C-5.15798184 8.89803154 -6.26938944 5.13739391 -7.375 1.375 C-5.49599272 -0.50400728 -2.51676175 0.07222495 0 0 Z " fill="#76F290" transform="translate(524.375,442.625)"/>
<path d="M0 0 C0.93005859 -0.020625 1.86011719 -0.04125 2.81835938 -0.0625 C8.90965251 -0.0967448 13.41276662 0.63072888 18.9375 3.25 C24.31649799 8.90484404 24.27722949 13.20343141 24.22265625 20.8125 C23.8477444 25.33198535 23.11082539 27.07667461 19.9375 30.25 C18.62190017 30.95101305 17.29067293 31.62458394 15.9375 32.25 C16.51757812 33.35794922 16.51757812 33.35794922 17.109375 34.48828125 C25.9375 51.68564356 25.9375 51.68564356 25.9375 58.25 C24.50166999 58.35836453 23.0634798 58.43576167 21.625 58.5 C20.82449219 58.54640625 20.02398437 58.5928125 19.19921875 58.640625 C16.9375 58.25 16.9375 58.25 15.33984375 56.77734375 C13.34990139 53.1910131 12.10189275 49.44687666 10.8125 45.5625 C9.49255298 40.5249856 9.49255298 40.5249856 6.9375 36.25 C4.2975 35.92 1.6575 35.59 -1.0625 35.25 C-1.0625 42.84 -1.0625 50.43 -1.0625 58.25 C-4.0325 58.25 -7.0025 58.25 -10.0625 58.25 C-11.76815618 56.54434382 -11.19002055 54.34266505 -11.19189453 52.01171875 C-11.19504669 50.89385986 -11.19819885 49.77600098 -11.20144653 48.62426758 C-11.1994223 47.40763428 -11.19739807 46.19100098 -11.1953125 44.9375 C-11.19626923 43.69830811 -11.19722595 42.45911621 -11.19821167 41.18237305 C-11.19889374 38.55611719 -11.19753538 35.92995367 -11.19287109 33.30371094 C-11.18717381 29.93071286 -11.19045302 26.55779435 -11.19644356 23.18479919 C-11.2009177 19.97736323 -11.19778882 16.769937 -11.1953125 13.5625 C-11.19733673 12.3458667 -11.19936096 11.1292334 -11.20144653 9.87573242 C-11.19829437 8.75787354 -11.19514221 7.64001465 -11.19189453 6.48828125 C-11.19109894 5.49868408 -11.19030334 4.50908691 -11.18948364 3.48950195 C-10.88661055 -1.85201188 -4.13217959 0.0222609 0 0 Z " fill="#7BF495" transform="translate(388.0625,532.75)"/>
<path d="M0 0 C5.97873264 0.11935764 5.97873264 0.11935764 7.08984375 1.23046875 C7.18375671 3.13290637 7.20728033 5.03885334 7.20336914 6.94360352 C7.20329361 8.16479385 7.20321808 9.38598419 7.20314026 10.6441803 C7.19803286 11.98674561 7.19281686 13.3293105 7.1875 14.671875 C7.18563574 16.03808033 7.18421188 17.40428632 7.18321228 18.77049255 C7.17938769 22.3724857 7.16955792 25.97443875 7.1585083 29.57641602 C7.14829291 33.2495062 7.14371439 36.92260284 7.13867188 40.59570312 C7.12793559 47.80730998 7.11085989 55.01888375 7.08984375 62.23046875 C5.63241912 62.31143678 4.17371568 62.36964649 2.71484375 62.41796875 C1.90273438 62.45277344 1.090625 62.48757813 0.25390625 62.5234375 C-0.46023438 62.42675781 -1.174375 62.33007812 -1.91015625 62.23046875 C-2.57015625 61.24046875 -3.23015625 60.25046875 -3.91015625 59.23046875 C-4.75578125 59.89046875 -5.60140625 60.55046875 -6.47265625 61.23046875 C-10.43672785 63.53683768 -12.39992855 63.80449773 -16.91015625 63.23046875 C-21.02453642 61.41248682 -23.38724894 58.92472588 -25.91015625 55.23046875 C-27.33377192 50.72868615 -27.17150214 46.15936491 -27.22265625 41.48046875 C-27.25166016 40.61164062 -27.28066406 39.7428125 -27.31054688 38.84765625 C-27.38234858 31.49074298 -25.52562215 26.40073045 -20.84765625 20.73046875 C-16.39533881 18.45694495 -11.82176993 18.55027748 -6.91015625 19.23046875 C-6.25015625 19.89046875 -5.59015625 20.55046875 -4.91015625 21.23046875 C-4.89033691 20.66537598 -4.87051758 20.1002832 -4.85009766 19.51806641 C-4.75497389 16.96338878 -4.64524567 14.40954334 -4.53515625 11.85546875 C-4.50421875 10.96601562 -4.47328125 10.0765625 -4.44140625 9.16015625 C-4.40273438 8.309375 -4.3640625 7.45859375 -4.32421875 6.58203125 C-4.29279785 5.79650879 -4.26137695 5.01098633 -4.22900391 4.20166016 C-3.78134192 1.4341082 -2.81413979 0.33953834 0 0 Z " fill="#73EE8C" transform="translate(789.91015625,528.76953125)"/>
<path d="M0 0 C0.93005859 -0.02900391 1.86011719 -0.05800781 2.81835938 -0.08789062 C9.05441078 -0.14486088 13.75411976 0.71065051 18.9375 4.3125 C23.73790735 9.35908209 24.33779027 13.69128594 24.29296875 20.44140625 C23.75401233 24.79451577 21.95044864 28.13829496 18.9375 31.3125 C17.9475 31.6425 16.9575 31.9725 15.9375 32.3125 C16.24042969 32.87195313 16.54335938 33.43140625 16.85546875 34.0078125 C25.9375 51.38942308 25.9375 51.38942308 25.9375 58.3125 C22.6375 58.3125 19.3375 58.3125 15.9375 58.3125 C12.60526433 52.1416932 10.59164999 46.06937684 8.76953125 39.2890625 C8.16496094 38.30679688 7.56039062 37.32453125 6.9375 36.3125 C3.9675 35.6525 0.9975 34.9925 -2.0625 34.3125 C-2.0625 42.2325 -2.0625 50.1525 -2.0625 58.3125 C-5.0325 58.3125 -8.0025 58.3125 -11.0625 58.3125 C-11.08562883 50.89790058 -11.10341785 43.48330889 -11.11431217 36.06868076 C-11.11953982 32.62609652 -11.12663531 29.18353688 -11.13793945 25.7409668 C-11.15084235 21.78694957 -11.15572918 17.83294244 -11.16015625 13.87890625 C-11.16531754 12.63726212 -11.17047882 11.39561798 -11.17579651 10.11634827 C-11.17587204 8.97524094 -11.17594757 7.83413361 -11.17602539 6.65844727 C-11.178246 5.648069 -11.18046661 4.63769073 -11.18275452 3.59669495 C-10.89900279 -1.79307559 -4.18227822 0.04224523 0 0 Z " fill="#77F290" transform="translate(692.0625,532.6875)"/>
<path d="M0 0 C4.972208 2.2680247 7.3020298 5.30353336 10 10 C11.29856962 13.89570887 11.26324136 17.62530392 11.3125 21.6875 C11.34150391 22.46544922 11.37050781 23.24339844 11.40039062 24.04492188 C11.46270212 29.79195869 10.32894739 34.24695631 7 39 C1.57802262 43.31545138 -3.12166357 44.68403346 -10 44 C-15.71182223 42.25741017 -18.62831817 39.91302209 -22 35 C-25.03627808 27.61705015 -25.36374572 18.05691656 -23.27734375 10.3203125 C-18.3975914 -0.15041116 -10.3940068 -0.89887269 0 0 Z " fill="#77F291" transform="translate(848,548)"/>
<path d="M0 0 C181.83 0 363.66 0 551 0 C550.67 0.66 550.34 1.32 550 2 C544.68147243 3.09341242 539.44254043 3.14139689 534.02943993 3.12584114 C533.14463511 3.12729458 532.25983028 3.12874802 531.3482132 3.13024551 C528.3802673 3.13389788 525.41237302 3.13042254 522.44442749 3.12698364 C520.29608179 3.12813578 518.14773629 3.12972393 515.9993912 3.13171089 C510.09272112 3.13589192 504.18606716 3.13381897 498.27939701 3.13072467 C491.90959628 3.12846563 485.53979835 3.13195283 479.16999817 3.13470459 C467.40826512 3.13889944 455.64653781 3.13852836 443.88480449 3.13579312 C433.010662 3.13327681 422.13652141 3.1326212 411.26237869 3.13381577 C410.18008284 3.13393034 410.18008284 3.13393034 409.07592242 3.13404724 C406.1467842 3.13435859 403.21764598 3.13467699 400.28850776 3.135007 C372.79933849 3.1380671 345.31017249 3.13529162 317.82100372 3.1299101 C293.43047208 3.12517145 269.03994566 3.12558307 244.64941406 3.13037109 C217.23140909 3.13573547 189.81340702 3.13784302 162.3954016 3.13475883 C159.46728174 3.13443814 156.53916188 3.13412529 153.61104202 3.13381577 C152.52962255 3.13369715 152.52962255 3.13369715 151.42635622 3.13357614 C140.57218402 3.13244198 129.71801392 3.1337629 118.86384201 3.13629532 C106.50260404 3.13916502 94.1413731 3.13832253 81.78013574 3.13301457 C75.47890283 3.13039754 69.17768049 3.12933834 62.87644768 3.13266373 C57.09489953 3.13566849 51.3133716 3.13396505 45.53182526 3.12868617 C43.45293997 3.1275796 41.37405294 3.12811348 39.2951688 3.13056196 C25.83354454 3.14518602 12.44077702 2.75622846 -1 2 C-0.67 1.34 -0.34 0.68 0 0 Z " fill="#2EB62E" transform="translate(237,327)"/>
<path d="M0 0 C1.86843733 0.04240127 1.86843733 0.04240127 4.17007655 0.44778126 C5.46401952 0.65794498 5.46401952 0.65794498 6.78410276 0.87235444 C7.72512709 1.03050915 8.66615142 1.18866386 9.63569164 1.35161114 C21.74972337 3.18450289 33.59881013 3.41855236 45.82893372 3.3742218 C48.14982001 3.37696944 50.47070505 3.38102752 52.79158705 3.38626546 C59.10539373 3.39675759 65.41905687 3.38878542 71.73285711 3.37751496 C77.86266234 3.36953141 83.99243983 3.37576251 90.12224481 3.38149153 C103.41654385 3.39336238 116.71079517 3.38837481 130.00509154 3.37621326 C141.63654827 3.36564617 153.26798881 3.3611417 164.8994503 3.36250877 C166.06009203 3.36263482 166.06009203 3.36263482 167.24418106 3.36276341 C170.38565848 3.3631157 173.5271359 3.36349972 176.66861331 3.36392899 C206.08792984 3.36788676 235.50721775 3.35520958 264.92652609 3.33440243 C291.03134687 3.31602626 317.13614024 3.31022317 343.2409668 3.31567383 C344.91805038 3.31602026 346.59513397 3.31636636 348.27221755 3.31671212 C349.10136014 3.31688311 349.93050273 3.31705411 350.78477085 3.31723029 C354.95907489 3.31808391 359.13337894 3.31890769 363.30768299 3.31969929 C364.1313161 3.31985637 364.9549492 3.32001345 365.80354089 3.32017529 C387.65828037 3.32416945 409.51301723 3.31868443 431.36775512 3.310188 C433.72052178 3.30928101 436.07328845 3.30837536 438.42605511 3.30747276 C439.98661819 3.30687166 441.54718127 3.30626304 443.10774434 3.30564686 C453.96312246 3.30143435 464.8184954 3.30084349 475.67387407 3.30275235 C489.66293442 3.30520017 503.65196701 3.30108394 517.6410198 3.28554235 C524.38135306 3.27822548 531.12164324 3.2742069 537.86198235 3.27878571 C544.03935282 3.28287994 550.21664455 3.27764619 556.39400312 3.26515963 C558.62108767 3.26224638 560.84817971 3.262643 563.07526229 3.26680271 C573.80967998 3.28502236 584.33585112 3.19423221 594.96221681 1.52240263 C596.63199171 1.27321947 598.31648811 1.12660231 600 1 C600.66 1.66 601.32 2.32 602 3 C587.05635711 5.54985141 572.60200903 6.43308953 557.45904541 6.38768005 C555.15709734 6.39186306 552.85515132 6.39734583 550.55320907 6.40399987 C544.28680073 6.41834639 538.02052513 6.41424378 531.75410986 6.40683305 C525.67113737 6.40256658 519.58820087 6.41243787 513.50523675 6.42174067 C500.30913367 6.44132691 487.11307004 6.44377049 473.91695589 6.43854547 C462.3657923 6.43397449 450.81464424 6.43460462 439.26348114 6.44038582 C437.70935163 6.44114271 436.15522213 6.44189869 434.60109262 6.44265376 C432.25867156 6.44379906 429.9162505 6.44494894 427.57382945 6.44611301 C405.81856786 6.4568057 384.06331141 6.46155595 362.30804825 6.45364285 C361.07996941 6.45319709 361.07996941 6.45319709 359.82708089 6.45274232 C353.18005619 6.45029381 346.53303156 6.44768201 339.88600693 6.44505819 C313.9692274 6.4349592 288.05251268 6.44330957 262.13574219 6.46655273 C232.96332727 6.49267387 203.79095135 6.50546032 174.61852431 6.49836498 C171.50294352 6.49764901 168.38736273 6.49697461 165.27178192 6.49632454 C164.50474604 6.49615473 163.73771015 6.49598492 162.94743075 6.49580997 C151.41184093 6.4935152 139.87628753 6.5014445 128.34070587 6.51461601 C115.20877964 6.52958428 102.07693831 6.53029457 88.94501379 6.5125451 C82.25428045 6.50387191 75.56372865 6.50181363 68.87299347 6.51719666 C62.73148111 6.53114131 56.59026744 6.52615609 50.44877192 6.50695742 C48.24372127 6.50322688 46.03864611 6.50603272 43.83361748 6.51656907 C28.20965274 6.58583333 13.35534642 4.88308048 -2 2 C-1.34 1.34 -0.68 0.68 0 0 Z " fill="#0C7D14" transform="translate(211,678)"/>
<path d="M0 0 C1.79244141 0.01740234 1.79244141 0.01740234 3.62109375 0.03515625 C5.41740234 0.04869141 5.41740234 0.04869141 7.25 0.0625 C8.17683594 0.07410156 9.10367187 0.08570313 10.05859375 0.09765625 C10.06445999 0.96795975 10.07032623 1.83826324 10.07637024 2.73493958 C10.13423998 10.93107974 10.20628351 19.12694572 10.29430866 27.32281971 C10.33906344 31.53656419 10.37830805 35.75021084 10.4050293 39.96411133 C10.4310117 44.0297047 10.47137748 48.09492263 10.52178001 52.16028404 C10.53848317 53.7123924 10.54997594 55.26456575 10.55620766 56.81675148 C10.56581173 58.98866898 10.59382405 61.15961853 10.6262207 63.33129883 C10.63732376 64.56817947 10.64842682 65.80506012 10.65986633 67.079422 C10.80406056 70.07734493 10.80406056 70.07734493 12.46061707 71.95805359 C14.06943344 73.16775176 14.06943344 73.16775176 16.05859375 74.09765625 C16.08548591 75.57672517 16.10493996 77.05593108 16.12109375 78.53515625 C16.13269531 79.35886719 16.14429688 80.18257813 16.15625 81.03125 C16.05859375 83.09765625 16.05859375 83.09765625 15.05859375 84.09765625 C9.81563733 84.64249499 5.35756867 84.66738209 0.49609375 82.53515625 C-3.24630823 78.79275427 -3.82904339 74.7194179 -4.18864441 69.52920532 C-4.18721939 68.26869354 -4.18579437 67.00818176 -4.18432617 65.70947266 C-4.18622452 65.00779968 -4.18812286 64.30612671 -4.19007874 63.58319092 C-4.19375218 61.28841604 -4.18313697 58.99396495 -4.171875 56.69921875 C-4.17068178 55.09736162 -4.17023034 53.49550379 -4.17048645 51.89364624 C-4.16892786 48.54998343 -4.16068184 45.20642863 -4.1472168 41.86279297 C-4.13014513 37.56850121 -4.12640514 33.27432699 -4.12716198 28.98000526 C-4.12689082 25.67901479 -4.12141969 22.37805022 -4.11416054 19.07706833 C-4.11097164 17.49255952 -4.10900595 15.90804777 -4.10826683 14.32353592 C-4.10611026 12.11879659 -4.09738348 9.91418479 -4.08666992 7.70947266 C-4.08285812 6.45373444 -4.07904633 5.19799622 -4.07511902 3.90420532 C-3.89170406 0.05443781 -3.8725066 0.12856928 0 0 Z " fill="#76F391" transform="translate(443.94140625,417.90234375)"/>
<path d="M0 0 C2.64 0 5.28 0 8 0 C9 1 9 1 9.11352539 3.22485352 C9.10828857 4.18319092 9.10305176 5.14152832 9.09765625 6.12890625 C9.09443359 7.16337891 9.09121094 8.19785156 9.08789062 9.26367188 C9.07951172 10.35228516 9.07113281 11.44089844 9.0625 12.5625 C9.05798828 13.65498047 9.05347656 14.74746094 9.04882812 15.87304688 C9.03699826 18.58208495 9.02051543 21.29101599 9 24 C9.66 24 10.32 24 11 24 C11.33 23.01 11.66 22.02 12 21 C16.45577347 18.02948436 20.77442606 18.37262509 26 19 C29.66488561 21.09422035 31.51332094 23.09497884 33 27 C33.17983971 29.63505839 33.25674516 32.16030046 33.23046875 34.79296875 C33.23001053 35.53960281 33.22955231 36.28623688 33.2290802 37.05549622 C33.22606682 38.62807817 33.21820793 40.20065738 33.20581055 41.77319336 C33.18748561 44.18939687 33.18530144 46.60521843 33.18554688 49.02148438 C33.18063396 50.5494825 33.17480662 52.07747802 33.16796875 53.60546875 C33.16685593 54.33146774 33.1657431 55.05746674 33.16459656 55.8054657 C33.11607343 60.88392657 33.11607343 60.88392657 32 62 C30.1875 62.1328125 30.1875 62.1328125 28 62.125 C27.278125 62.12757813 26.55625 62.13015625 25.8125 62.1328125 C24 62 24 62 23 61 C22.85350084 58.90275875 22.77251051 56.80088302 22.71875 54.69921875 C22.68136719 53.41208984 22.64398437 52.12496094 22.60546875 50.79882812 C22.56979668 49.42839875 22.5346459 48.05795571 22.5 46.6875 C22.43214968 44.02453329 22.35835379 41.36195832 22.28125 38.69921875 C22.25095703 37.51158936 22.22066406 36.32395996 22.18945312 35.1003418 C22.03416702 32.55913267 21.73873855 30.42146235 21 28 C16.29850771 27.55889641 16.29850771 27.55889641 12.125 29.3125 C9.75579701 32.86630449 9.81496268 36.27046384 9.68359375 40.41796875 C9.64169922 41.67158203 9.59980469 42.92519531 9.55664062 44.21679688 C9.51732422 45.52712891 9.47800781 46.83746094 9.4375 48.1875 C9.39429008 49.52279978 9.350675 50.85808652 9.30664062 52.19335938 C9.20043498 55.46213297 9.09839003 58.73098333 9 62 C6.03 62 3.06 62 0 62 C0 41.54 0 21.08 0 0 Z " fill="#7DF499" transform="translate(619,529)"/>
<path d="M0 0 C1.94326172 -0.02513672 1.94326172 -0.02513672 3.92578125 -0.05078125 C9.1713905 0.45580407 12.42755856 1.95040115 16 5.8125 C18.85434757 10.04116306 18.81589602 13.35273643 18.8203125 18.3515625 C18.82126923 19.03302338 18.82222595 19.71448425 18.82321167 20.41659546 C18.82389115 21.85390312 18.82205304 23.29121388 18.81787109 24.72851562 C18.812503 26.93626728 18.8178323 29.14381703 18.82421875 31.3515625 C18.82355825 32.74739628 18.82227767 34.14322994 18.8203125 35.5390625 C18.81918457 36.81346191 18.81805664 38.08786133 18.81689453 39.40087891 C18.6875 42.3125 18.6875 42.3125 17.6875 43.3125 C11.29876761 43.78573944 11.29876761 43.78573944 8.75 41.8125 C8.399375 41.3175 8.04875 40.8225 7.6875 40.3125 C7.254375 40.786875 6.82125 41.26125 6.375 41.75 C3.31358086 44.58464735 -0.18967192 44.70535358 -4.2421875 44.66796875 C-7.97596135 44.02688682 -9.73406682 42.01671041 -12.3125 39.3125 C-13.85904322 34.67287035 -13.9228977 30.15309571 -13.3125 25.3125 C-10.1747204 20.6058306 -5.72548903 18.52178478 -0.3125 17.3125 C2.70889747 17.0966859 5.66573718 17.12363982 8.6875 17.3125 C8.08888258 14.96078869 7.41825648 12.6265622 6.6875 10.3125 C2.8736223 8.40556115 -1.9387586 9.42448032 -6.125 9.5703125 C-7.176875 9.48523438 -8.22875 9.40015625 -9.3125 9.3125 C-11.3125 6.3125 -11.3125 6.3125 -11.125 4.25 C-9.06451228 -0.66347071 -4.57741107 0.01358282 0 0 Z " fill="#7CF396" transform="translate(433.3125,547.6875)"/>
<path d="M0 0 C0.69931641 -0.01611328 1.39863281 -0.03222656 2.11914062 -0.04882812 C6.91372243 -0.05331323 10.24665546 0.5522223 14.1875 3.3125 C17.64781278 8.3512632 18.763291 12.0647583 18.578125 18.21484375 C18.57246521 18.9374086 18.56680542 19.65997345 18.56097412 20.4044342 C18.53878257 22.68699586 18.48862549 24.96792198 18.4375 27.25 C18.41741244 28.80791986 18.39916564 30.3658646 18.3828125 31.92382812 C18.3389753 35.7206715 18.27007421 39.51630957 18.1875 43.3125 C15.5475 43.3125 12.9075 43.3125 10.1875 43.3125 C9.8575 41.9925 9.5275 40.6725 9.1875 39.3125 C8.5275 39.3125 7.8675 39.3125 7.1875 39.3125 C6.8575 40.3025 6.5275 41.2925 6.1875 42.3125 C3.17725223 44.6002883 -0.06890625 44.73279647 -3.78125 44.62890625 C-7.20851982 44.09504307 -9.25088621 42.56915977 -11.8125 40.3125 C-14.43970878 36.13284966 -14.60689589 31.1042284 -13.8125 26.3125 C-10.86494119 21.17804271 -7.80416328 19.38550658 -2.171875 17.76953125 C1.3620535 17.08497888 4.5969666 17.11665272 8.1875 17.3125 C7.41719878 13.82440809 7.41719878 13.82440809 6.1875 10.3125 C1.83979784 8.86326595 -2.33183333 9.39795968 -6.87890625 9.5703125 C-8.33103516 9.44269531 -8.33103516 9.44269531 -9.8125 9.3125 C-11.8125 6.3125 -11.8125 6.3125 -11.625 4.25 C-9.52040569 -0.76864797 -4.60849545 -0.02089073 0 0 Z " fill="#78F392" transform="translate(736.8125,547.6875)"/>
<path d="M0 0 C4.75247607 2.03677546 7.20416957 4.88779903 9.3203125 9.49609375 C10.70621856 14.60164422 10.21853899 19.75506415 10 25 C2.08 25 -5.84 25 -14 25 C-11.94596069 29.82143028 -11.94596069 29.82143028 -9 34 C-6.14122091 34.23701239 -3.30116703 34.42219182 -0.4375 34.5625 C0.77196289 34.62727539 0.77196289 34.62727539 2.00585938 34.69335938 C4.00368805 34.79975262 6.0018207 34.90040888 8 35 C8 37.31 8 39.62 8 42 C2.77979015 45.16760307 -3.10731113 44.57026021 -9 44 C-14.3571778 42.44414773 -18.03636695 39.78740723 -21 35 C-24.00241373 27.42299952 -24.42209966 18.77898729 -22.08984375 10.94140625 C-17.40778873 0.80949941 -10.77296366 -1.42061059 0 0 Z " fill="#79F293" transform="translate(567,548)"/>
<path d="M0 0 C1.92283813 0.00616333 1.92283813 0.00616333 3.88452148 0.01245117 C4.90883522 0.0131385 4.90883522 0.0131385 5.95384216 0.01383972 C7.39714292 0.01686101 8.84044046 0.0247437 10.28369141 0.03710938 C12.50036077 0.05537662 14.71661281 0.057619 16.93334961 0.05737305 C27.79569055 0.09549524 27.79569055 0.09549524 28.94311523 1.24291992 C29.06811523 4.74291992 29.06811523 4.74291992 28.94311523 8.24291992 C27.94311523 9.24291992 27.94311523 9.24291992 25.65795898 9.34057617 C24.28317383 9.32317383 24.28317383 9.32317383 22.88061523 9.30541992 C21.96151367 9.29639648 21.04241211 9.28737305 20.09545898 9.27807617 C19.38518555 9.26647461 18.67491211 9.25487305 17.94311523 9.24291992 C17.94533585 9.84204697 17.94755646 10.44117401 17.94984436 11.05845642 C17.97189688 17.2708985 17.98702169 23.48332954 17.99804688 29.69580078 C18.00308857 32.01709443 18.00992175 34.33838489 18.01855469 36.65966797 C18.03062748 39.98820787 18.03634502 43.31670594 18.04077148 46.64526367 C18.04593277 47.69004379 18.05109406 48.73482391 18.05641174 49.81126404 C18.05652504 51.25264488 18.05652504 51.25264488 18.05664062 52.72314453 C18.05886124 53.57363876 18.06108185 54.424133 18.06336975 55.30039978 C17.94311523 57.24291992 17.94311523 57.24291992 16.94311523 58.24291992 C15.42383486 58.31471956 13.90144042 58.32683999 12.38061523 58.30541992 C11.55432617 58.29639648 10.72803711 58.28737305 9.87670898 58.27807617 C9.23862305 58.26647461 8.60053711 58.25487305 7.94311523 58.24291992 C6.7452035 55.84709646 6.82244084 54.37514455 6.82958984 51.70141602 C6.82966537 50.76059174 6.82974091 49.81976746 6.82981873 48.85043335 C6.83756065 47.32381577 6.83756065 47.32381577 6.84545898 45.76635742 C6.84687393 44.72597321 6.84828888 43.68558899 6.8497467 42.61367798 C6.85535657 39.28172971 6.86791076 35.94984797 6.88061523 32.61791992 C6.88562896 30.36271256 6.89019209 28.10750414 6.89428711 25.85229492 C6.90532921 20.31581378 6.92207697 14.77937161 6.94311523 9.24291992 C6.1606543 9.25452148 5.37819336 9.26612305 4.57202148 9.27807617 C3.56010742 9.28709961 2.54819336 9.29612305 1.50561523 9.30541992 C0.4962793 9.31702148 -0.51305664 9.32862305 -1.55297852 9.34057617 C-4.05688477 9.24291992 -4.05688477 9.24291992 -5.05688477 8.24291992 C-5.24438477 5.30541992 -5.24438477 5.30541992 -5.05688477 2.24291992 C-3.05688477 0.24291992 -3.05688477 0.24291992 0 0 Z " fill="#74ED8D" transform="translate(515.056884765625,532.757080078125)"/>
<path d="M0 0 C1.26070313 0.01546875 2.52140625 0.0309375 3.8203125 0.046875 C6.875 0.25 6.875 0.25 7.875 1.25 C7.58769945 3.58944736 7.25563221 5.9239143 6.875 8.25 C5.76125 8.353125 4.6475 8.45625 3.5 8.5625 C2.30375 8.789375 1.1075 9.01625 -0.125 9.25 C-2.0701 12.16765 -2.57776317 13.87537285 -3.125 17.25 C-1.990625 17.229375 -0.85625 17.20875 0.3125 17.1875 C3.875 17.25 3.875 17.25 4.875 18.25 C5 21.75 5 21.75 4.875 25.25 C4.545 25.58 4.215 25.91 3.875 26.25 C1.565 26.25 -0.745 26.25 -3.125 26.25 C-3.125 37.47 -3.125 48.69 -3.125 60.25 C-6.095 60.25 -9.065 60.25 -12.125 60.25 C-13.125 59.25 -13.125 59.25 -13.23852539 56.10717773 C-13.23836633 54.71597303 -13.23267506 53.32476239 -13.22265625 51.93359375 C-13.2212413 51.20253922 -13.21982635 50.47148468 -13.21836853 49.71827698 C-13.21275408 47.37464368 -13.20019922 45.03110461 -13.1875 42.6875 C-13.18248686 41.10221492 -13.17792363 39.51692834 -13.17382812 37.93164062 C-13.16277997 34.0377239 -13.14550572 30.14387795 -13.125 26.25 C-14.775 25.92 -16.425 25.59 -18.125 25.25 C-18.125 22.94 -18.125 20.63 -18.125 18.25 C-16.475 17.92 -14.825 17.59 -13.125 17.25 C-13.186875 16.239375 -13.24875 15.22875 -13.3125 14.1875 C-13.07862328 9.27608898 -11.75409002 5.61958549 -8.96484375 1.5625 C-6.084132 -0.49253004 -3.47481636 -0.07135147 0 0 Z " fill="#75F08F" transform="translate(501.125,530.75)"/>
<path d="M0 0 C1.59521484 0.00966797 1.59521484 0.00966797 3.22265625 0.01953125 C5.9375 0.1875 5.9375 0.1875 7.9375 1.1875 C7.9375 3.1675 7.9375 5.1475 7.9375 7.1875 C7.37160156 7.39246094 6.80570312 7.59742188 6.22265625 7.80859375 C5.48917969 8.07800781 4.75570313 8.34742188 4 8.625 C3.26910156 8.89183594 2.53820312 9.15867187 1.78515625 9.43359375 C-0.04555678 10.04136948 -0.04555678 10.04136948 -1.0625 11.1875 C-1.43010731 13.51567964 -1.76491581 15.8493385 -2.0625 18.1875 C0.2475 18.1875 2.5575 18.1875 4.9375 18.1875 C4.9375 21.1575 4.9375 24.1275 4.9375 27.1875 C2.6275 27.1875 0.3175 27.1875 -2.0625 27.1875 C-2.05726318 28.14640137 -2.05202637 29.10530273 -2.04663086 30.09326172 C-2.02855321 33.64533559 -2.01705785 37.19740537 -2.00756836 40.74951172 C-2.00253448 42.28793013 -1.99570692 43.82634375 -1.98706055 45.36474609 C-1.97495361 47.57390526 -1.96926231 49.78300126 -1.96484375 51.9921875 C-1.95968246 52.68182587 -1.95452118 53.37146423 -1.94920349 54.08200073 C-1.94862829 58.95975659 -1.94862829 58.95975659 -3.0625 61.1875 C-9.21484375 61.28515625 -9.21484375 61.28515625 -11.0625 61.1875 C-12.0625 60.1875 -12.0625 60.1875 -12.17602539 57.04467773 C-12.17586633 55.65347303 -12.17017506 54.26226239 -12.16015625 52.87109375 C-12.1587413 52.14003922 -12.15732635 51.40898468 -12.15586853 50.65577698 C-12.15025408 48.31214368 -12.13769922 45.96860461 -12.125 43.625 C-12.11998686 42.03971492 -12.11542363 40.45442834 -12.11132812 38.86914062 C-12.10027997 34.9752239 -12.08300572 31.08137795 -12.0625 27.1875 C-13.7125 26.8575 -15.3625 26.5275 -17.0625 26.1875 C-17.0625 23.8775 -17.0625 21.5675 -17.0625 19.1875 C-15.4125 18.8575 -13.7625 18.5275 -12.0625 18.1875 C-12.09730469 17.53523437 -12.13210938 16.88296875 -12.16796875 16.2109375 C-12.33709071 10.75071413 -12.22496956 6.87264009 -9.0625 2.1875 C-5.57329626 -0.13863583 -4.11297454 -0.05497293 0 0 Z " fill="#75F08F" transform="translate(475.0625,529.8125)"/>
<path d="M0 0 C1.23492188 -0.01417969 2.46984375 -0.02835938 3.7421875 -0.04296875 C6.86586712 0.16984545 8.52561596 0.53512774 11.125 2.1875 C10.25 6.9375 10.25 6.9375 9.125 9.1875 C5.96484375 9.6015625 5.96484375 9.6015625 2.0625 9.8125 C0.77214844 9.88726563 -0.51820313 9.96203125 -1.84765625 10.0390625 C-2.84667969 10.08804688 -3.84570312 10.13703125 -4.875 10.1875 C-7.3025062 16.85105288 -8.21522408 23.40762386 -5.625 30.1875 C-3.76117782 33.38262374 -3.20810005 33.95519188 0.125 35.1875 C2.71654919 35.42779959 2.71654919 35.42779959 5.375 35.3125 C6.71304688 35.28542969 6.71304688 35.28542969 8.078125 35.2578125 C8.75359375 35.23460937 9.4290625 35.21140625 10.125 35.1875 C10.125 37.4975 10.125 39.8075 10.125 42.1875 C5.30732127 44.75692866 0.44108812 44.72594622 -4.875 44.1875 C-10.68397548 42.2146404 -14.23434553 38.43438961 -16.9921875 32.9765625 C-19.26814469 25.78614908 -19.04917315 15.88893276 -16.1875 8.9375 C-12.40554888 1.885036 -7.63215235 0.03966815 0 0 Z " fill="#75F18E" transform="translate(600.875,547.8125)"/>
<path d="M0 0 C0.33 0 0.66 0 1 0 C1.33 7.26 1.66 14.52 2 22 C1.01 22 0.02 22 -1 22 C-3.15028304 22.94978897 -3.15028304 22.94978897 -5 24 C-4.34 24.66 -3.68 25.32 -3 26 C-5.31 26.33 -7.62 26.66 -10 27 C-11.96157384 31.10996424 -12.2695411 34.46646457 -12.25 39 C-12.25515625 40.19625 -12.2603125 41.3925 -12.265625 42.625 C-12.01117201 45.85804974 -11.38687122 48.09417459 -10 51 C-6.7 51.33 -3.4 51.66 0 52 C0 52.99 0 53.98 0 55 C0.66 55 1.32 55 2 55 C1.67 56.32 1.34 57.64 1 59 C0.67 58.34 0.34 57.68 0 57 C-0.845625 57.66 -1.69125 58.32 -2.5625 59 C-6.5265716 61.30636893 -8.4897723 61.57402898 -13 61 C-17.11438017 59.18201807 -19.47709269 56.69425713 -22 53 C-23.42361567 48.4982174 -23.26134589 43.92889616 -23.3125 39.25 C-23.34150391 38.38117187 -23.37050781 37.51234375 -23.40039062 36.6171875 C-23.47219233 29.26027423 -21.6154659 24.1702617 -16.9375 18.5 C-12.48518256 16.2264762 -7.91161368 16.31980873 -3 17 C-2.34 17.66 -1.68 18.32 -1 19 C-0.67 12.73 -0.34 6.46 0 0 Z " fill="#74EF8D" transform="translate(786,531)"/>
<path d="M0 0 C2.27289982 0.03822471 4.5446711 0.15601747 6.8125 0.3125 C8.05644531 0.39113281 9.30039062 0.46976563 10.58203125 0.55078125 C13.60543362 0.9481427 15.44231408 1.42157922 18 3 C15.69 3 13.38 3 11 3 C11.33 3.99 11.66 4.98 12 6 C10.35 6 8.7 6 7 6 C7 12.93 7 19.86 7 27 C11.29 27.33 15.58 27.66 20 28 C19.01 28.66 18.02 29.32 17 30 C17 30.99 17 31.98 17 33 C14 35 14 35 9 35 C9 42.59 9 50.18 9 58 C6.03 58 3.06 58 0 58 C-1.70565618 56.29434382 -1.12752055 54.09266505 -1.12939453 51.76171875 C-1.13254669 50.64385986 -1.13569885 49.52600098 -1.13894653 48.37426758 C-1.1369223 47.15763428 -1.13489807 45.94100098 -1.1328125 44.6875 C-1.13376923 43.44830811 -1.13472595 42.20911621 -1.13571167 40.93237305 C-1.13639374 38.30611719 -1.13503538 35.67995367 -1.13037109 33.05371094 C-1.12467381 29.68071286 -1.12795302 26.30779435 -1.13394356 22.93479919 C-1.1384177 19.72736323 -1.13528882 16.519937 -1.1328125 13.3125 C-1.13483673 12.0958667 -1.13686096 10.8792334 -1.13894653 9.62573242 C-1.13579437 8.50787354 -1.13264221 7.39001465 -1.12939453 6.23828125 C-1.12859894 5.24868408 -1.12780334 4.25908691 -1.12698364 3.23950195 C-1 1 -1 1 0 0 Z " fill="#77F38F" transform="translate(378,533)"/>
<path d="M0 0 C0.88778471 0.00423136 1.77556941 0.00846272 2.69025669 0.0128223 C4.09755854 0.01362409 4.09755854 0.01362409 5.53329074 0.01444209 C8.7188094 0.01750219 11.90426564 0.02778719 15.08976898 0.03796211 C17.37989558 0.04165215 19.67002294 0.04490237 21.96015075 0.04774734 C28.28577932 0.05689222 34.61137974 0.07232685 40.93699309 0.08873013 C47.04790819 0.10409367 53.15883356 0.11379776 59.26975888 0.12408447 C71.77619387 0.14530017 84.28261514 0.17119197 96.78903541 0.19971862 C109.17783947 0.22796182 121.56664504 0.25414516 133.95545921 0.27755752 C134.72481293 0.27901261 135.49416665 0.28046769 136.28683413 0.28196687 C140.19375004 0.28934529 144.10066602 0.29668671 148.00758203 0.30401389 C175.70392662 0.35602324 203.40025996 0.41268117 231.09658965 0.4720594 C258.00869464 0.52974572 284.92080262 0.5853348 311.83291778 0.63807502 C313.07652204 0.6405134 313.07652204 0.6405134 314.34524961 0.64300103 C322.67085687 0.65932298 330.99646422 0.6756022 339.32207163 0.69185009 C356.2833647 0.72495199 373.24465722 0.75833921 390.2059494 0.79189888 C391.37581299 0.79421304 391.37581299 0.79421304 392.56931019 0.79657396 C444.67940601 0.89968838 496.78948815 1.00947555 548.89956817 1.12025276 C548.89956817 1.45025276 548.89956817 1.78025276 548.89956817 2.12025276 C547.75010689 2.12198901 546.60064562 2.12372526 545.41635218 2.12551412 C494.72452965 2.20214713 444.03270914 2.27998554 393.34089813 2.36392036 C392.57267089 2.36519204 391.80444365 2.36646372 391.0129368 2.36777394 C374.31470358 2.39542243 357.61647073 2.4232856 340.91823824 2.4513697 C332.72866534 2.46514211 324.53909236 2.47886712 316.34951934 2.49256721 C315.12711982 2.49461334 315.12711982 2.49461334 313.88002536 2.4967008 C287.49632473 2.54084122 261.11262036 2.58185527 234.72891223 2.62123689 C207.60164735 2.66174497 180.47438938 2.70542941 153.34713605 2.75307387 C149.50994009 2.75981179 145.67274407 2.76651364 141.83554801 2.77319351 C141.08038058 2.77450924 140.32521315 2.77582496 139.54716186 2.77718056 C127.42256908 2.79821268 115.29797365 2.81592601 103.17337388 2.83237807 C90.96498251 2.84901538 78.75660098 2.86919714 66.5482213 2.89292117 C59.94122689 2.90566386 53.33423737 2.91676835 46.7272335 2.92367187 C40.66598665 2.93004006 34.60476465 2.94093929 28.54353159 2.95528606 C26.36282521 2.9596758 24.18211483 2.96247104 22.00140423 2.96341475 C8.27146491 2.97048679 -5.39176588 3.34605638 -19.10043183 4.12025276 C-16.05444436 2.08959445 -14.97230502 1.82542872 -11.47543183 1.55775276 C-7.28135713 1.22521285 -4.36395911 0.00445193 0 0 Z " fill="#0BDC08" transform="translate(243.10043182969093,348.87974724173546)"/>
<path d="M0 0 C13.66220736 0 13.66220736 0 19 4 C21.97547572 8.46321358 21.62063568 12.76572319 21 18 C19.01031547 21.91075925 17.63466354 23.57689098 14 26 C10.64453125 26.1953125 10.64453125 26.1953125 6.8125 26.125 C4.564375 26.08375 2.31625 26.0425 0 26 C0 17.42 0 8.84 0 0 Z " fill="#016B01" transform="translate(394,434)"/>
<path d="M0 0 C2.97 0 5.94 0 9 0 C9 14.19 9 28.38 9 43 C6.03 43 3.06 43 0 43 C-1.92257175 41.07742825 -1.12908424 38.21914892 -1.13894653 35.66125488 C-1.1369223 34.77272827 -1.13489807 33.88420166 -1.1328125 32.96875 C-1.13376923 32.06249878 -1.13472595 31.15624756 -1.13571167 30.22253418 C-1.13639353 28.30248953 -1.13453882 26.38244259 -1.13037109 24.46240234 C-1.12502292 21.51264296 -1.13031588 18.56303586 -1.13671875 15.61328125 C-1.13605797 13.75260383 -1.13477681 11.8919265 -1.1328125 10.03125 C-1.13483673 9.14272339 -1.13686096 8.25419678 -1.13894653 7.33874512 C-1.11494988 1.11494988 -1.11494988 1.11494988 0 0 Z " fill="#75F08E" transform="translate(807,548)"/>
<path d="M0 0 C5.01989606 -0.89727611 9.61830563 -0.78953964 14.0625 1.75 C17.94259089 6.255912 18.2545867 9.74012734 18.01171875 15.57421875 C17.98906448 16.29865677 17.96641022 17.02309479 17.94306946 17.76948547 C17.89324425 19.29514458 17.83830133 20.82064409 17.77856445 22.34594727 C17.68742746 24.68936535 17.61292592 27.03287396 17.54101562 29.37695312 C17.49055549 30.85940841 17.43915609 32.34183209 17.38671875 33.82421875 C17.36373215 34.52834396 17.34074554 35.23246918 17.31706238 35.95793152 C17.11628428 40.88371572 17.11628428 40.88371572 16 42 C13 42.125 13 42.125 10 42 C8.15841813 40.15841813 8.78201689 37.17251682 8.71875 34.69921875 C8.68136719 33.41208984 8.64398437 32.12496094 8.60546875 30.79882812 C8.56979668 29.42839875 8.5346459 28.05795571 8.5 26.6875 C8.43214968 24.02453329 8.35835379 21.36195832 8.28125 18.69921875 C8.25095703 17.51158936 8.22066406 16.32395996 8.18945312 15.1003418 C8.08364395 11.81632578 8.08364395 11.81632578 7 8 C3.7 8 0.4 8 -3 8 C-2.45276317 4.62537285 -1.9451 2.91765 0 0 Z " fill="#72F28B" transform="translate(634,548)"/>
<path d="M0 0 C2.72693286 2.49498685 2.99945646 3.99493233 3.3984375 7.71484375 C3.40636737 9.12239518 3.39809291 10.53011568 3.375 11.9375 C3.38660156 12.64068359 3.39820313 13.34386719 3.41015625 14.06835938 C3.3849141 18.55725458 2.78162436 21.45440838 0 25 C-3 27 -3 27 -5.5 26.8125 C-8.19261112 25.93740139 -9.29019779 25.22274287 -11 23 C-12.19667203 19.40998391 -12.20538881 16.4095161 -12.25 12.625 C-12.27578125 11.31789063 -12.3015625 10.01078125 -12.328125 8.6640625 C-11.98650077 4.84925856 -11.31641599 3.00234499 -9 0 C-5.8168485 -1.59157575 -3.38676935 -0.77242108 0 0 Z " fill="#025903" transform="translate(846,557)"/>
<path d="M0 0 C1.65 0 3.3 0 5 0 C5 0.99 5 1.98 5 3 C5.66 3 6.32 3 7 3 C7 3.66 7 4.32 7 5 C6.01 5.86625 6.01 5.86625 5 6.75 C2.71006955 8.8843299 2.71006955 8.8843299 2.6875 12.0625 C2.90006069 15.05700861 2.90006069 15.05700861 4 18 C5.32 18 6.64 18 8 18 C6.35 16.68 4.7 15.36 3 14 C3.47761194 8.62686567 3.47761194 8.62686567 5.5625 6.125 C9.14339672 4.47227844 12.07635835 4.80381792 16 5 C16.29554656 12.68421053 16.29554656 12.68421053 14 16 C13.34 16.33 12.68 16.66 12 17 C12.99 17.66 13.98 18.32 15 19 C13.6875 21 13.6875 21 11 23 C6.05267957 23.78076074 1.58054384 24.09132789 -2.625 21.1875 C-5.18806982 17.10988893 -5.24456983 13.72835012 -5 9 C-3.9573628 5.47107409 -2.70464281 3.45876619 0 1 C0 0.67 0 0.34 0 0 Z " fill="#73F38B" transform="translate(426,567)"/>
<path d="M0 0 C2.58300647 2.58300647 2.28817863 4.39932652 2.32226562 7.92578125 C2.31904297 8.69277344 2.31582031 9.45976563 2.3125 10.25 C2.32861328 11.00152344 2.34472656 11.75304687 2.36132812 12.52734375 C2.36560783 17.4318878 1.627719 20.71582015 -1 25 C-2 26 -2 26 -5.5625 26.0625 C-6.696875 26.041875 -7.83125 26.02125 -9 26 C-11.61615514 21.4667153 -12.40909138 18.15916257 -12.375 12.9375 C-12.38273438 11.75027344 -12.39046875 10.56304688 -12.3984375 9.33984375 C-11.97112767 5.75798196 -11.15314658 3.86210948 -9 1 C-5.98675805 -0.50662097 -3.31713623 -0.17770373 0 0 Z " fill="#025C02" transform="translate(785,557)"/>
<path d="M0 0 C9 0 9 0 13 2 C15.82928353 6.24392529 15.75795035 10.02034771 15 15 C13.125 17.625 13.125 17.625 10 19 C6.59064962 19.30189668 3.43770437 19.18334423 0 19 C0 12.73 0 6.46 0 0 Z " fill="#045E05" transform="translate(387,541)"/>
<path d="M0 0 C9.22222222 0 9.22222222 0 13 3 C15.4915904 6.7373856 15.45793285 8.57331583 15 13 C13.6875 15.9375 13.6875 15.9375 11 18 C7.23178997 18.42290702 3.81354398 18.22699667 0 18 C0 12.06 0 6.12 0 0 Z " fill="#025B03" transform="translate(691,541)"/>
<path d="M0 0 C1.21236328 0.01353516 1.21236328 0.01353516 2.44921875 0.02734375 C3.37154297 0.04474609 3.37154297 0.04474609 4.3125 0.0625 C4.94007528 10.0165412 4.94007528 10.0165412 2.4375 14.1875 C-0.33220854 16.63136047 -1.32557355 17.02228595 -5.0625 17.4375 C-8.6875 17.0625 -8.6875 17.0625 -11.125 14.9375 C-12.97805839 11.52787255 -13.40338388 9.88054737 -12.6875 6.0625 C-8.82594263 1.3660113 -5.97985026 -0.0866645 0 0 Z " fill="#026403" transform="translate(493.6875,474.9375)"/>
<path d="M0 0 C-0.66 0.66 -1.32 1.32 -2 2 C1.01031744 2.93423645 1.86650268 3.04449911 5 2 C8.625 1.875 8.625 1.875 12 2 C13.89488952 3.89488952 13.18019112 6.57139146 13.23046875 9.08984375 C13 11 13 11 11 13 C11 10.03 11 7.06 11 4 C9.741875 4.12375 8.48375 4.2475 7.1875 4.375 C6.47980469 4.44460938 5.77210938 4.51421875 5.04296875 4.5859375 C2.70011858 4.92665391 2.70011858 4.92665391 0 7 C-0.33338596 10.54187831 -0.33338596 10.54187831 0 14 C1.1621539 15.39345165 1.1621539 15.39345165 4.375 15.0625 C6.169375 15.0315625 6.169375 15.0315625 8 15 C8.99 15 9.98 15 11 15 C10.67 15.66 10.34 16.32 10 17 C7.01701742 17.74574565 4.99446634 18.24294727 2 18 C-1.08513269 15.58554833 -2.83461215 13.24808177 -5 10 C-5.99 9.34 -6.98 8.68 -8 8 C-8.53466703 14.04963508 -8.53466703 14.04963508 -6.4375 19.5625 C-3.09615597 21.53303623 -0.82002825 21.40928874 3 21 C5.20067421 20.06716704 5.20067421 20.06716704 7 19 C7.99 19 8.98 19 10 19 C9 22 9 22 7.4375 23.1875 C3.91949856 24.36016715 0.63586785 24.56635634 -3 24 C-6.37360029 22.31319986 -8.36489739 21.01039052 -10.375 17.8125 C-11.39669332 13.21488005 -12.3449179 8.40485319 -9.94921875 4.12109375 C-6.67138724 0.10840916 -4.95804091 -1.48741227 0 0 Z " fill="#82F29C" transform="translate(734,568)"/>
<path d="M0 0 C0.66 0.33 1.32 0.66 2 1 C2 19.48 2 37.96 2 57 C4.97 57.33 7.94 57.66 11 58 C11 50.41 11 42.82 11 35 C13.64 35 16.28 35 19 35 C20.8046875 36.98828125 20.8046875 36.98828125 22 40 C22.37753418 40.93078369 22.37753418 40.93078369 22.76269531 41.88037109 C23.59081749 43.96970231 24.36342175 46.07306794 25.125 48.1875 C26.87808397 53.17128047 26.87808397 53.17128047 29 58 C27.515 57.505 27.515 57.505 26 57 C24.81822638 54.37187657 23.81389249 51.83788031 22.875 49.125 C22.61074219 48.39152344 22.34648437 47.65804687 22.07421875 46.90234375 C21.01358646 43.94657154 19.99304066 40.97912199 19 38 C17.02 37.67 15.04 37.34 13 37 C13.01047363 37.62567871 13.02094727 38.25135742 13.03173828 38.89599609 C13.07323191 41.7222901 13.09930473 44.54852011 13.125 47.375 C13.15013672 48.85226562 13.15013672 48.85226562 13.17578125 50.359375 C13.18222656 51.30039062 13.18867188 52.24140625 13.1953125 53.2109375 C13.20578613 54.08024902 13.21625977 54.94956055 13.22705078 55.84521484 C13 58 13 58 11 60 C6.08454331 60.31712624 3.35230594 60.28805642 -1 58 C-1.17898211 38.65004553 -0.62329408 19.33703577 0 0 Z " fill="#034004" transform="translate(376,533)"/>
<path d="M0 0 C3.465 1.98 3.465 1.98 7 4 C7.33 3.67 7.66 3.34 8 3 C10.35313555 2.92728259 12.70833668 2.91629132 15.0625 2.9375 C16.35285156 2.94652344 17.64320313 2.95554687 18.97265625 2.96484375 C19.97167969 2.97644531 20.97070312 2.98804688 22 3 C22 5.31 22 7.62 22 10 C18.75548974 11.62225513 15.28984707 10.98800502 11.75 10.8125 C10.62271484 10.78446289 10.62271484 10.78446289 9.47265625 10.75585938 C4.28426361 10.49779796 1.08497992 9.46969568 -3 6 C-3.33 5.01 -3.66 4.02 -4 3 C-3.01 3 -2.02 3 -1 3 C-0.67 2.01 -0.34 1.02 0 0 Z " fill="#76F190" transform="translate(553,580)"/>
<path d="M0 0 C0.29554656 7.68421053 0.29554656 7.68421053 -2 11 C-4.79870027 12.39935013 -6.90498792 12.25265405 -10 12 C-11.9375 10.875 -11.9375 10.875 -13 9 C-12.92999366 5.63969563 -12.60671445 3.72805734 -10.4375 1.125 C-6.85660328 -0.52772156 -3.92364165 -0.19618208 0 0 Z " fill="#045706" transform="translate(442,572)"/>
<path d="M0 0 C0.35789474 7.15789474 0.35789474 7.15789474 -1.0625 10.5 C-4.01717332 12.78748902 -6.38658914 12.39419028 -10 12 C-12 10 -12 10 -12.375 6.5625 C-12 3 -12 3 -10.5 1.0625 C-6.87802345 -0.47684003 -3.92037077 -0.19601854 0 0 Z " fill="#035D04" transform="translate(745,572)"/>
<path d="M0 0 C0.33 0.99 0.66 1.98 1 3 C2.1446875 3.0309375 2.1446875 3.0309375 3.3125 3.0625 C4.6428125 3.5265625 4.6428125 3.5265625 6 4 C6.474375 5.155 6.94875 6.31 7.4375 7.5 C7.953125 8.655 8.46875 9.81 9 11 C11.96003468 11.9934389 11.96003468 11.9934389 15 12 C15.99 12.33 16.98 12.66 18 13 C17.34 13.474375 16.68 13.94875 16 14.4375 C15.01 15.2109375 15.01 15.2109375 14 16 C14 16.33 14 16.66 14 17 C9.36452812 17.45445803 6.05781838 17.60446764 1.9375 15.25 C-0.99588 10.3294916 -0.40126033 5.59089386 0 0 Z " fill="#70F388" transform="translate(725,573)"/>
<path d="M0 0 C1.875 1.0625 1.875 1.0625 3 3 C3 5.31 3 7.62 3 10 C-1.62 10 -6.24 10 -11 10 C-10 4 -10 4 -8.3125 1.625 C-5.30194775 -0.4905232 -3.60756699 -0.53729721 0 0 Z " fill="#016702" transform="translate(564,556)"/>
<path d="M0 0 C3.4375 0.1875 3.4375 0.1875 4.4375 1.1875 C4.79840226 8.64614662 4.79840226 8.64614662 2.4375 12.1875 C-0.5625 12.5 -0.5625 12.5 -3.5625 12.1875 C-5.5625 10.1875 -5.5625 10.1875 -5.828125 8.3125 C-5.82296875 7.61125 -5.8178125 6.91 -5.8125 6.1875 C-5.81765625 5.48625 -5.8228125 4.785 -5.828125 4.0625 C-5.28858661 0.25399371 -3.57326726 0.1880667 0 0 Z " fill="#79F196" transform="translate(811.5625,529.8125)"/>
<path d="M0 0 C4.33269078 1.51197089 7.91428678 3.82338661 11.6875 6.375 C17.22041283 10.03848777 22.66577451 12.91291649 29 15 C29 15.66 29 16.32 29 17 C29.78375 17.2475 30.5675 17.495 31.375 17.75 C35.20615845 19.07108912 38.90687375 20.60511434 42.6328125 22.1953125 C45.21449124 23.21456448 45.21449124 23.21456448 49 23 C48.505 24.485 48.505 24.485 48 26 C35.21414827 22.98417256 23.35131628 16.68591214 12.25 9.8125 C11.59499512 9.40894287 10.93999023 9.00538574 10.26513672 8.58959961 C6.34095404 6.0877926 3.17164284 3.40770023 0 0 Z " fill="#146A15" transform="translate(146,649)"/>
<path d="M0 0 C4.29 0 8.58 0 13 0 C13 2.31 13 4.62 13 7 C8.13948404 9.59227518 3.34728867 9.18689553 -2 9 C-2.33 8.34 -2.66 7.68 -3 7 C0.465 6.505 0.465 6.505 4 6 C4.33 5.01 4.66 4.02 5 3 C2.525 2.01 2.525 2.01 0 1 C0 0.67 0 0.34 0 0 Z " fill="#81F39C" transform="translate(598,583)"/>
<path d="M0 0 C0.33 0 0.66 0 1 0 C1.37050428 7.53358706 1.37050428 7.53358706 -0.26757812 9.59570312 C-2.33646363 11.27273659 -3.37957784 11.41276608 -6.01171875 11.51171875 C-6.76904297 11.54716797 -7.52636719 11.58261719 -8.30664062 11.61914062 C-9.09232422 11.64169922 -9.87800781 11.66425781 -10.6875 11.6875 C-11.88342773 11.73874023 -11.88342773 11.73874023 -13.10351562 11.79101562 C-15.06851904 11.87338104 -17.03423696 11.93837067 -19 12 C-20.01111093 15.04913228 -20.01111093 15.04913228 -19 18 C-21.4932534 17.00269864 -22.77467439 16.34925469 -24.25 14.0625 C-25 12 -25 12 -25 9 C-17.08 9 -9.16 9 -1 9 C-0.67 6.03 -0.34 3.06 0 0 Z " fill="#155919" transform="translate(578,564)"/>
<path d="M0 0 C0 0.99 0 1.98 0 3 C-1.57421875 4.4296875 -1.57421875 4.4296875 -3.6875 5.875 C-8.37810809 9.23605192 -12.17453714 12.71913987 -15.4375 17.5 C-17.8622598 21.03322143 -20.65714472 23.34091057 -24 26 C-24.33 26.66 -24.66 27.32 -25 28 C-25.66 28 -26.32 28 -27 28 C-26.09879598 19.23656784 -16.55963086 13.36449973 -10.1875 8.125 C-8.46288806 6.74429148 -6.73390863 5.36901542 -5 4 C-3.33288351 2.66722914 -1.66608286 1.33406276 0 0 Z " fill="#129211" transform="translate(146,360)"/>
<path d="M0 0 C2.97 0.33 5.94 0.66 9 1 C10.95576656 3.7854857 12 5.57791536 12 9 C11.34 9 10.68 9 10 9 C9.67 7.02 9.34 5.04 9 3 C6.69 2.67 4.38 2.34 2 2 C2 9.59 2 17.18 2 25 C-1.69418201 26.231394 -4.2056261 25.64432764 -8 25 C-8 24.67 -8 24.34 -8 24 C-5.36 24 -2.72 24 0 24 C0 16.08 0 8.16 0 0 Z " fill="#18611D" transform="translate(690,567)"/>
<path d="M0 0 C0.66 0.33 1.32 0.66 2 1 C1.67 1.66 1.34 2.32 1 3 C0.41149106 8.65873983 0.70583293 13.17639822 4 18 C7.01034706 20.45287539 10.35892471 20.29278409 14.09765625 20.1953125 C16.45139144 19.95365591 18.07716389 19.384442 20 18 C20.33 17.34 20.66 16.68 21 16 C21.66 16 22.32 16 23 16 C23.33 16.99 23.66 17.98 24 19 C26.31 19.33 28.62 19.66 31 20 C31 20.66 31 21.32 31 22 C27.10745958 22.07485655 23.75892143 21.93973036 20 21 C19.01 21.33 18.02 21.66 17 22 C11.94916241 22.53029448 8.09525429 22.54762715 3.5 20.25 C0.23089218 17.30780296 -0.88523347 15.46667732 -1.23046875 11.0546875 C-1.21628906 10.00539063 -1.20210937 8.95609375 -1.1875 7.875 C-1.18105469 6.82054687 -1.17460938 5.76609375 -1.16796875 4.6796875 C-1 2 -1 2 0 0 Z " fill="#043505" transform="translate(723,571)"/>
<path d="M0 0 C1 2 2 4 3 6 C3.89203125 5.97679687 4.7840625 5.95359375 5.703125 5.9296875 C6.87359375 5.91164063 8.0440625 5.89359375 9.25 5.875 C10.99023438 5.84019531 10.99023438 5.84019531 12.765625 5.8046875 C15.85166412 5.99104252 17.54173503 6.15630127 20 8 C20.75 11.625 20.75 11.625 21 15 C20.11957031 15.13277344 19.23914063 15.26554688 18.33203125 15.40234375 C17.17058594 15.57894531 16.00914062 15.75554688 14.8125 15.9375 C13.66394531 16.11152344 12.51539063 16.28554688 11.33203125 16.46484375 C8.53674788 16.91379313 5.77066414 17.42082162 3 18 C6.90794279 14.9005971 9.70967334 13.86535758 14.6875 13.9375 C15.89986328 13.95103516 15.89986328 13.95103516 17.13671875 13.96484375 C18.05904297 13.98224609 18.05904297 13.98224609 19 14 C18.67 12.35 18.34 10.7 18 9 C16.42798828 9.06960938 16.42798828 9.06960938 14.82421875 9.140625 C13.44534099 9.17814548 12.06643242 9.21454536 10.6875 9.25 C9.99720703 9.28351562 9.30691406 9.31703125 8.59570312 9.3515625 C3.48093412 9.45039862 3.48093412 9.45039862 1.03125 7.15625 C-0.18942368 4.60393231 -0.23302809 2.7963371 0 0 Z " fill="#074309" transform="translate(724,550)"/>
<path d="M0 0 C-2.74809092 1.46839218 -5.33568881 2.45676058 -8.3515625 3.2265625 C-18.49679771 5.91625656 -28.01872447 8.9801211 -37.48876953 13.54736328 C-39.30313019 14.41415473 -41.14916887 15.21408897 -43 16 C-43.66 15.67 -44.32 15.34 -45 15 C-44.195625 14.731875 -43.39125 14.46375 -42.5625 14.1875 C-41.716875 13.795625 -40.87125 13.40375 -40 13 C-39.67 12.01 -39.34 11.02 -39 10 C-38.13761719 9.88785156 -37.27523437 9.77570313 -36.38671875 9.66015625 C-32.89645103 8.97981571 -30.05524828 7.88009144 -26.8125 6.4375 C-21.32294618 4 -21.32294618 4 -18 4 C-17.67 3.34 -17.34 2.68 -17 2 C-11.48328169 0.47749852 -5.71937774 -0.30915555 0 0 Z " fill="#0CC40A" transform="translate(224,353)"/>
<path d="M0 0 C0 3 0 3 -1 5 C-3.14453125 5.73828125 -3.14453125 5.73828125 -5.8125 6.3125 C-6.68519531 6.51488281 -7.55789063 6.71726562 -8.45703125 6.92578125 C-11.63362864 7.018493 -12.70836937 6.11000955 -15 4 C-14.34 3.34 -13.68 2.68 -13 2 C-13 1.67 -13 1.34 -13 1 C-8.59085217 -0.10228696 -4.51617599 -0.07654536 0 0 Z " fill="#72ED89" transform="translate(745,565)"/>
<path d="M0 0 C0.33 0 0.66 0 1 0 C1.38063221 2.3260857 1.71269945 4.66055264 2 7 C0.05909174 8.94090826 -3.47293902 8.39919435 -6.0625 8.5625 C-7.99802734 8.68818359 -7.99802734 8.68818359 -9.97265625 8.81640625 C-10.97167969 8.87699219 -11.97070312 8.93757812 -13 9 C-13 8.01 -13 7.02 -13 6 C-12.01 5.67 -11.02 5.34 -10 5 C-9.67 4.34 -9.34 3.68 -9 3 C-6.66752239 2.66073053 -4.33414529 2.32759934 -2 2 C-1.34 1.34 -0.68 0.68 0 0 Z " fill="#6FF087" transform="translate(847,582)"/>
<path d="M0 0 C3.40755272 1.92880342 6.74147635 3.8276509 10 6 C8.51151783 7.71175449 7.20918992 8.89179832 5.1875 9.9375 C1.62630581 10.03924841 -0.30241556 8.15806755 -3 6 C-3.33 5.01 -3.66 4.02 -4 3 C-3.01 3 -2.02 3 -1 3 C-0.67 2.01 -0.34 1.02 0 0 Z " fill="#6FF487" transform="translate(553,580)"/>
<path d="M0 0 C1.58294782 -0.05437607 3.16644256 -0.09296271 4.75 -0.125 C5.63171875 -0.14820313 6.5134375 -0.17140625 7.421875 -0.1953125 C10.1135858 0.00860498 11.69904974 0.63448279 14 2 C13.125 6.75 13.125 6.75 12 9 C8.37 8.67 4.74 8.34 1 8 C1 7.67 1 7.34 1 7 C2.98 6.67 4.96 6.34 7 6 C6.67 4.68 6.34 3.36 6 2 C3.03 1.505 3.03 1.505 0 1 C0 0.67 0 0.34 0 0 Z " fill="#84F4A2" transform="translate(598,548)"/>
<path d="M0 0 C0.66 0.33 1.32 0.66 2 1 C-2.15529585 4.74990113 -5.72951387 6.92945188 -11 9 C-12.03125 9.515625 -13.0625 10.03125 -14.125 10.5625 C-18.20643391 12.60321696 -22.38905463 14.16999772 -26.6875 15.6875 C-27.45449219 15.95949219 -28.22148438 16.23148438 -29.01171875 16.51171875 C-31 17 -31 17 -33 16 C-32.37738281 15.76667969 -31.75476563 15.53335938 -31.11328125 15.29296875 C-22.74645571 11.99058154 -14.92141069 7.88757023 -7.03637695 3.57104492 C-6.15554443 3.09642822 -5.27471191 2.62181152 -4.3671875 2.1328125 C-3.57425293 1.69855957 -2.78131836 1.26430664 -1.96435547 0.81689453 C-1.31611816 0.54731934 -0.66788086 0.27774414 0 0 Z " fill="#038B17" transform="translate(854,637)"/>
<path d="M0 0 C1.670625 0.4021875 1.670625 0.4021875 3.375 0.8125 C4.83598845 3.7344769 4.48634901 6.31143475 4.47265625 9.5703125 C4.4712413 10.23336395 4.46982635 10.89641541 4.46836853 11.57955933 C4.46276754 13.69891863 4.450215 15.81817259 4.4375 17.9375 C4.43248512 19.37369639 4.42792219 20.80989444 4.42382812 22.24609375 C4.41279782 25.76826345 4.39553259 29.29037145 4.375 32.8125 C4.045 32.8125 3.715 32.8125 3.375 32.8125 C3.045 22.5825 2.715 12.3525 2.375 1.8125 C-1.43933013 3.33823205 -3.59052304 4.33996322 -6.625 6.8125 C-6.625 2.8125 -6.625 2.8125 -5.5625 1 C-3.625 -0.1875 -3.625 -0.1875 0 0 Z " fill="#003B00" transform="translate(636.625,556.1875)"/>
<path d="M0 0 C0.33 0 0.66 0 1 0 C1.43759755 6.68763213 -0.18938569 12.62188531 -1.875 19.0625 C-2.14441406 20.12533203 -2.41382813 21.18816406 -2.69140625 22.28320312 C-3.96385094 27.25194447 -5.2738778 32.165182 -7 37 C-8.1328125 35.4140625 -8.1328125 35.4140625 -9 33 C-8.2421875 29.9609375 -8.2421875 29.9609375 -6.875 26.375 C-3.73059071 17.75743124 -1.83966132 8.97220299 0 0 Z " fill="#049115" transform="translate(925,526)"/>
<path d="M0 0 C0.66 1.32 1.32 2.64 2 4 C1.01 3.34 0.02 2.68 -1 2 C-4.12521833 1.83300768 -4.12521833 1.83300768 -7 2 C-7.33 3.65 -7.66 5.3 -8 7 C-4.7 7.33 -1.4 7.66 2 8 C2.33 7.01 2.66 6.02 3 5 C3 6.65 3 8.3 3 10 C-1.62 10 -6.24 10 -11 10 C-10 4 -10 4 -8.3125 1.625 C-5.37550387 -0.43883512 -3.51387796 -0.31944345 0 0 Z " fill="#044506" transform="translate(564,556)"/>
<path d="M0 0 C2.97 0.33 5.94 0.66 9 1 C9 1.66 9 2.32 9 3 C9.639375 3.0825 10.27875 3.165 10.9375 3.25 C15.89632734 4.46440669 20.44429026 6.72214513 25 9 C25 9.66 25 10.32 25 11 C20.38241755 9.51322423 15.87348801 7.81014856 11.375 6 C10.39273438 5.60941406 10.39273438 5.60941406 9.390625 5.2109375 C6.19082234 3.9284255 3.04983539 2.61006538 0 1 C0 0.67 0 0.34 0 0 Z " fill="#0CBF0A" transform="translate(818,356)"/>
<path d="M0 0 C1.18167969 3.54503906 0.82526322 4.00282242 -0.73046875 7.23828125 C-1.12169922 8.05876953 -1.51292969 8.87925781 -1.91601562 9.72460938 C-2.33560547 10.57861328 -2.75519531 11.43261719 -3.1875 12.3125 C-3.58775391 13.15490234 -3.98800781 13.99730469 -4.40039062 14.86523438 C-6.63710284 19.50179016 -9.02056165 23.80138917 -12 28 C-12.75 26.3125 -12.75 26.3125 -13 24 C-12.443125 23.3296875 -11.88625 22.659375 -11.3125 21.96875 C-8.22886929 18.0100349 -6.3312631 13.73305997 -4.25 9.1875 C-3.83878906 8.30384766 -3.42757812 7.42019531 -3.00390625 6.50976562 C-1.99646541 4.34259637 -0.99539302 2.17272247 0 0 Z " fill="#126113" transform="translate(936,572)"/>
<path d="M0 0 C0.33 0 0.66 0 1 0 C1.66 7.26 2.32 14.52 3 22 C5.64 22.33 8.28 22.66 11 23 C11 23.33 11 23.66 11 24 C9.35425434 24.02688151 7.70838587 24.04634123 6.0625 24.0625 C5.14597656 24.07410156 4.22945313 24.08570313 3.28515625 24.09765625 C1 24 1 24 0 23 C-0.08713831 21.29227642 -0.10700007 19.58101351 -0.09765625 17.87109375 C-0.09443359 16.83662109 -0.09121094 15.80214844 -0.08789062 14.73632812 C-0.07951172 13.64771484 -0.07113281 12.55910156 -0.0625 11.4375 C-0.05798828 10.34501953 -0.05347656 9.25253906 -0.04882812 8.12695312 C-0.03699826 5.41791505 -0.02051543 2.70898401 0 0 Z " fill="#0A560B" transform="translate(375,568)"/>
<path d="M0 0 C0.33 0.66 0.66 1.32 1 2 C-7.261959 14.66970387 -7.261959 14.66970387 -12 20 C-12 17 -12 17 -11 14 C-10.34 13.67 -9.68 13.34 -9 13 C-8.34786708 10.97536745 -8.34786708 10.97536745 -8 9 C-7.01 9 -6.02 9 -5 9 C-5 7.35 -5 5.7 -5 4 C-4.01 3.67 -3.02 3.34 -2 3 C-1.34 2.01 -0.68 1.02 0 0 Z " fill="#136917" transform="translate(922,600)"/>
<path d="M0 0 C1.07765625 0.03609375 2.1553125 0.0721875 3.265625 0.109375 C4.49539063 0.17898438 4.49539063 0.17898438 5.75 0.25 C6.08 0.91 6.41 1.57 6.75 2.25 C2.46 2.25 -1.83 2.25 -6.25 2.25 C-6.91 3.57 -7.57 4.89 -8.25 6.25 C-8.91 6.25 -9.57 6.25 -10.25 6.25 C-10.58 7.24 -10.91 8.23 -11.25 9.25 C-10.91578523 6.24206709 -10.45423812 4.51589491 -8.59375 2.09375 C-5.55014541 -0.30055228 -3.82127584 -0.16614243 0 0 Z " fill="#7EEC9D" transform="translate(475.25,529.75)"/>
<path d="M0 0 C3 3.75 3 3.75 3 6 C3.66 6 4.32 6 5 6 C6.40234375 7.86328125 6.40234375 7.86328125 7.9375 10.3125 C9.75569887 13.20022762 11.48648525 15.681564 14 18 C11 18 11 18 9.09765625 16.2421875 C1.25830816 7.12386707 1.25830816 7.12386707 -1 3 C-0.67 2.01 -0.34 1.02 0 0 Z " fill="#0E6A11" transform="translate(108,607)"/>
<path d="M0 0 C0.99 0 1.98 0 3 0 C3 0.66 3 1.32 3 2 C3.66 2 4.32 2 5 2 C5 3.32 5 4.64 5 6 C5.66 6 6.32 6 7 6 C8.49140021 9.62197194 9.7874262 13.27566618 11 17 C7.6488721 13.93801809 5.49333007 10.7479145 3.25 6.8125 C2.63640625 5.74644531 2.0228125 4.68039062 1.390625 3.58203125 C0 1 0 1 0 0 Z " fill="#0E6F11" transform="translate(95,590)"/>
<path d="M0 0 C1.32 0.66 2.64 1.32 4 2 C1.92084841 3.79672348 -0.16300651 5.58742527 -2.25 7.375 C-3.12978516 8.13683594 -3.12978516 8.13683594 -4.02734375 8.9140625 C-6.88165933 11.35145558 -9.4880973 13.55699048 -13 15 C-12.6875 13.0625 -12.6875 13.0625 -12 11 C-11.01 10.67 -10.02 10.34 -9 10 C-8.67 9.34 -8.34 8.68 -8 8 C-7.21625 7.566875 -6.4325 7.13375 -5.625 6.6875 C-2.6795497 4.79399624 -1.58095325 3.07869843 0 0 Z " fill="#116A15" transform="translate(889,637)"/>
<path d="M0 0 C3.5 0.3125 3.5 0.3125 7 1 C7.33 1.66 7.66 2.32 8 3 C-2.395 3.495 -2.395 3.495 -13 4 C-9.95401253 1.96934169 -8.87187319 1.70517596 -5.375 1.4375 C-2.38885578 1.41022777 -2.38885578 1.41022777 0 0 Z " fill="#0DC40A" transform="translate(237,349)"/>
<path d="M0 0 C1.00776049 3.14502434 1.11131266 3.75087167 -0.3125 6.9375 C-0.869375 7.948125 -1.42625 8.95875 -2 10 C-2.4640625 11.3303125 -2.4640625 11.3303125 -2.9375 12.6875 C-4.17677542 15.38474651 -5.52137176 16.43020212 -8 18 C-6.65150163 13.64029169 -4.95092154 9.68658562 -2.875 5.625 C-2.33617187 4.56539062 -1.79734375 3.50578125 -1.2421875 2.4140625 C-0.83226562 1.61742187 -0.42234375 0.82078125 0 0 Z " fill="#048F15" transform="translate(914,565)"/>
<path d="M0 0 C0.66 0.33 1.32 0.66 2 1 C1.53102295 1.29245605 1.0620459 1.58491211 0.57885742 1.88623047 C-1.55189165 3.2153455 -3.68220003 4.54516528 -5.8125 5.875 C-6.55048828 6.33519531 -7.28847656 6.79539062 -8.04882812 7.26953125 C-8.76103516 7.71425781 -9.47324219 8.15898438 -10.20703125 8.6171875 C-11.18893433 9.22989502 -11.18893433 9.22989502 -12.19067383 9.85498047 C-13.8092467 10.8792831 -15.40624377 11.93749584 -17 13 C-17.99 12.67 -18.98 12.34 -20 12 C-18.7934375 11.319375 -18.7934375 11.319375 -17.5625 10.625 C-14.91143428 9.25274335 -14.91143428 9.25274335 -14 7 C-12.33600015 6.26784006 -10.66839588 5.54235835 -8.98046875 4.8671875 C-6.93441494 3.97128228 -5.09473399 2.90953429 -3.1875 1.75 C-2.135625 1.1725 -1.08375 0.595 0 0 Z " fill="#8CE9A8" transform="translate(276,540)"/>
<path d="M0 0 C1.89488952 1.89488952 1.18019112 4.57139146 1.23046875 7.08984375 C1 9 1 9 -1 11 C-1 8.03 -1 5.06 -1 2 C-4.3 2.33 -7.6 2.66 -11 3 C-8.9049375 -1.190125 -4.10268427 -0.15195127 0 0 Z " fill="#87F8A1" transform="translate(746,570)"/>
<path d="M0 0 C0.33 0 0.66 0 1 0 C1.33 9.9 1.66 19.8 2 30 C1.01 30.33 0.02 30.66 -1 31 C-0.67 20.77 -0.34 10.54 0 0 Z " fill="#0B650F" transform="translate(641,561)"/>
<path d="M0 0 C0.598125 0.20625 1.19625 0.4125 1.8125 0.625 C-0.1675 1.615 -0.1675 1.615 -2.1875 2.625 C-2.1875 4.605 -2.1875 6.585 -2.1875 8.625 C-1.424375 8.625 -0.66125 8.625 0.125 8.625 C2.02083333 8.625 3.91666667 8.625 5.8125 8.625 C3.8125 10.625 3.8125 10.625 0.3125 10.875 C-3.1875 10.625 -3.1875 10.625 -5.1875 8.625 C-5.5 5.125 -5.5 5.125 -5.1875 1.625 C-2.1875 -0.375 -2.1875 -0.375 0 0 Z " fill="#083C0A" transform="translate(738.1875,573.375)"/>
<path d="M0 0 C2 2 2 2 2.1953125 5.9140625 C2.18200376 7.48449351 2.15813602 9.05486221 2.125 10.625 C2.11597656 11.42679688 2.10695313 12.22859375 2.09765625 13.0546875 C2.07406223 15.03658523 2.03819065 17.01832981 2 19 C1.67 19 1.34 19 1 19 C0.93941406 17.94039062 0.87882813 16.88078125 0.81640625 15.7890625 C0.73199873 14.40102779 0.64735083 13.01300768 0.5625 11.625 C0.52318359 10.92632813 0.48386719 10.22765625 0.44335938 9.5078125 C0.25719866 5.62639508 0.25719866 5.62639508 -1 2 C-3.64 2.33 -6.28 2.66 -9 3 C-9 2.34 -9 1.68 -9 1 C-5.98675805 -0.50662097 -3.31713623 -0.17770373 0 0 Z " fill="#1D6E23" transform="translate(785,557)"/>
<path d="M0 0 C0.33 0.99 0.66 1.98 1 3 C3.31 3.33 5.62 3.66 8 4 C8 4.66 8 5.32 8 6 C2.88208358 6.10662326 -1.92928099 5.71167986 -7 5 C-2.25 0 -2.25 0 0 0 Z " fill="#09490C" transform="translate(746,587)"/>
<path d="M0 0 C0 3 0 3 -2.1171875 5.48046875 C-3.02726563 6.37378906 -3.93734375 7.26710938 -4.875 8.1875 C-5.77992188 9.08855469 -6.68484375 9.98960937 -7.6171875 10.91796875 C-10 13 -10 13 -12 13 C-12 13.66 -12 14.32 -12 15 C-12.66 15 -13.32 15 -14 15 C-12.46000416 11.16751036 -10.08835992 9.05935935 -7 6.375 C-6.113125 5.59898437 -5.22625 4.82296875 -4.3125 4.0234375 C-3.1678125 3.02183594 -3.1678125 3.02183594 -2 2 C-1.34 1.34 -0.68 0.68 0 0 Z " fill="#058F18" transform="translate(883,613)"/>
<path d="M0 0 C1 2 1 2 0.546875 3.83984375 C0.28390625 4.53207031 0.0209375 5.22429687 -0.25 5.9375 C-0.50265625 6.62714844 -0.7553125 7.31679688 -1.015625 8.02734375 C-2.07747761 10.15526266 -3.30135063 11.35900713 -5 13 C-6.04622875 14.97620986 -7.05439935 16.9737129 -8 19 C-8.66 18.67 -9.32 18.34 -10 18 C-8.52380364 15.18593119 -7.04354757 12.37401822 -5.5625 9.5625 C-5.14162109 8.76005859 -4.72074219 7.95761719 -4.28710938 7.13085938 C-3.88427734 6.36708984 -3.48144531 5.60332031 -3.06640625 4.81640625 C-2.69459229 4.10943604 -2.32277832 3.40246582 -1.93969727 2.67407227 C-1 1 -1 1 0 0 Z " fill="#1A881A" transform="translate(101,408)"/>
<path d="M0 0 C0.66 0.99 1.32 1.98 2 3 C3.96361864 3.57748803 3.96361864 3.57748803 6.125 3.6875 C7.40375 3.790625 8.6825 3.89375 10 4 C10 4.33 10 4.66 10 5 C5.93534257 5.7034984 2.95943366 6.05584898 -1 5 C-3.68149993 5.38567131 -3.68149993 5.38567131 -6 6 C-6 5.34 -6 4.68 -6 4 C-4.03852126 2.61061923 -2.03833424 1.2739589 0 0 Z " fill="#115214" transform="translate(786,587)"/>
<path d="M0 0 C0 0.33 0 0.66 0 1 C-1.36125 1.4021875 -1.36125 1.4021875 -2.75 1.8125 C-5.71471963 2.89576294 -7.6169754 3.98359457 -10 6 C-10 2 -10 2 -8.9375 0.1875 C-5.89359393 -1.67811985 -3.36687843 -0.69878609 0 0 Z " fill="#064C08" transform="translate(640,557)"/>
<path d="M0 0 C0 4.17561407 -1.83352478 5.53957787 -4.5 8.6875 C-5.3353125 9.68136719 -6.170625 10.67523438 -7.03125 11.69921875 C-8.00578125 12.83810547 -8.00578125 12.83810547 -9 14 C-9.6015625 12.12109375 -9.6015625 12.12109375 -10 10 C-8.375 8.0625 -8.375 8.0625 -6 6 C-5.113125 5.113125 -4.22625 4.22625 -3.3125 3.3125 C-2.20833333 2.20833333 -1.10416667 1.10416667 0 0 Z " fill="#08BD06" transform="translate(136,402)"/>
<path d="M0 0 C1.32 0.66 2.64 1.32 4 2 C3.01 2 2.02 2 1 2 C1 3.65 1 5.3 1 7 C2.65 7.33 4.3 7.66 6 8 C6 8.33 6 8.66 6 9 C4.00045254 9.04254356 1.99958364 9.04080783 0 9 C-1 8 -1 8 -1.125 4.5 C-1 1 -1 1 0 0 Z " fill="#7BEC95" transform="translate(484,548)"/>
<path d="M0 0 C0 3.10551666 -0.5393715 4.35261084 -2 7 C-2.66 7 -3.32 7 -4 7 C-4.33 7.99 -4.66 8.98 -5 10 C-7.5625 11.6875 -7.5625 11.6875 -10 13 C-8.48446596 9.52224821 -6.4226544 7.0442016 -3.875 4.25 C-3.15054688 3.45078125 -2.42609375 2.6515625 -1.6796875 1.828125 C-0.84824219 0.92320312 -0.84824219 0.92320312 0 0 Z " fill="#058D17" transform="translate(894,600)"/>
<path d="M0 0 C2.64 0.33 5.28 0.66 8 1 C8 1.66 8 2.32 8 3 C9.32 3.33 10.64 3.66 12 4 C12 4.66 12 5.32 12 6 C7.76570244 4.68938409 3.92592596 3.05643741 0 1 C0 0.67 0 0.34 0 0 Z " fill="#1F7721" transform="translate(167,663)"/>
<path d="M0 0 C2.64 0 5.28 0 8 0 C8 0.99 8 1.98 8 3 C8.66 3 9.32 3 10 3 C9.67 4.32 9.34 5.64 9 7 C8.67 6.34 8.34 5.68 8 5 C7.01 5.495 7.01 5.495 6 6 C5.67 5.01 5.34 4.02 5 3 C2.49552484 1.78130071 2.49552484 1.78130071 0 1 C0 0.67 0 0.34 0 0 Z " fill="#67D97E" transform="translate(778,583)"/>
<path d="M0 0 C2.0839403 0.11443603 4.16716493 0.24195547 6.25 0.375 C7.41015625 0.44460938 8.5703125 0.51421875 9.765625 0.5859375 C12.70694334 0.96248308 14.49949011 1.4774123 17 3 C10.91891127 4.80789124 5.83137661 2.83657235 0 1 C0 0.67 0 0.34 0 0 Z " fill="#028C17" transform="translate(222,658)"/>
<path d="M0 0 C0.66 0 1.32 0 2 0 C3.25541557 3.76624671 2.37061958 5.37188934 1 9 C0.34 9 -0.32 9 -1 9 C-0.67 6.03 -0.34 3.06 0 0 Z " fill="#1DA01F" transform="translate(78,463)"/>
<path d="M0 0 C2.64 0 5.28 0 8 0 C7.34 1.32 6.68 2.64 6 4 C4.68 4 3.36 4 2 4 C2 3.01 2 2.02 2 1 C1.34 0.67 0.68 0.34 0 0 Z " fill="#7CF097" transform="translate(429,566)"/>
<path d="M0 0 C1.134375 0.020625 2.26875 0.04125 3.4375 0.0625 C2.7775 0.7225 2.1175 1.3825 1.4375 2.0625 C0.1175 2.0625 -1.2025 2.0625 -2.5625 2.0625 C-2.8925 3.7125 -3.2225 5.3625 -3.5625 7.0625 C-3.8925 7.0625 -4.2225 7.0625 -4.5625 7.0625 C-4.60504356 5.06295254 -4.60330783 3.06208364 -4.5625 1.0625 C-3.5625 0.0625 -3.5625 0.0625 0 0 Z " fill="#89F0A6" transform="translate(527.5625,506.9375)"/>
<path d="M0 0 C4.99275057 1.27721526 7.57611908 3.17330957 11 7 C7.41584854 7 6.58796261 6.21108216 3.8125 4.0625 C3.09707031 3.51722656 2.38164063 2.97195313 1.64453125 2.41015625 C1.10183594 1.94480469 0.55914063 1.47945313 0 1 C0 0.67 0 0.34 0 0 Z " fill="#11B90C" transform="translate(859,376)"/>
<path d="M0 0 C0.99 0.33 1.98 0.66 3 1 C0.36 2.98 -2.28 4.96 -5 7 C-5.66 6.67 -6.32 6.34 -7 6 C-5.625 4.5 -5.625 4.5 -4 3 C-3.34 3 -2.68 3 -2 3 C-2 2.34 -2 1.68 -2 1 C-1.34 0.67 -0.68 0.34 0 0 Z " fill="#0AC007" transform="translate(164,376)"/>
<path d="M0 0 C1.98 0.495 1.98 0.495 4 1 C3.814375 1.61875 3.62875 2.2375 3.4375 2.875 C2.76313824 5.04160178 2.76313824 5.04160178 4 7 C2.0625 6.1875 2.0625 6.1875 0 5 C-0.33 4.01 -0.66 3.02 -1 2 C-0.67 1.34 -0.34 0.68 0 0 Z " fill="#035104" transform="translate(555,575)"/>
<path d="M0 0 C0.33 0.66 0.66 1.32 1 2 C-0.65 4.31 -2.3 6.62 -4 9 C-5 6 -5 6 -5 4 C-4.01 3.67 -3.02 3.34 -2 3 C-1.34 2.01 -0.68 1.02 0 0 Z " fill="#0E630F" transform="translate(922,600)"/>
<path d="M0 0 C1.98 0.99 1.98 0.99 4 2 C4.75 5.625 4.75 5.625 5 9 C4.34 9 3.68 9 3 9 C2.01 6.03 1.02 3.06 0 0 Z " fill="#0A4F0C" transform="translate(406,568)"/>
<path d="M0 0 C0 3.16785869 -0.55555175 4.28103859 -2 7 C-2.33 7.99 -2.66 8.98 -3 10 C-3.66 8.02 -4.32 6.04 -5 4 C-3.35 2.68 -1.7 1.36 0 0 Z " fill="#053D08" transform="translate(713,561)"/>
<path d="M0 0 C0.33 0.99 0.66 1.98 1 3 C-1.31 4.98 -3.62 6.96 -6 9 C-5.34 7.35 -4.68 5.7 -4 4 C-3.34 4 -2.68 4 -2 4 C-1.34 2.68 -0.68 1.36 0 0 Z " fill="#02BA02" transform="translate(116,390)"/>
<path d="M0 0 C1.32 0.66 2.64 1.32 4 2 C1.36 3.65 -1.28 5.3 -4 7 C-3 4 -3 4 -1 2 C-0.67 1.34 -0.34 0.68 0 0 Z " fill="#136B16" transform="translate(870,652)"/>
</svg>
